<?xml version="1.0" encoding="UTF-8" standalone="no"?>
<svg
   xmlns:dc="http://purl.org/dc/elements/1.1/"
   xmlns:cc="http://creativecommons.org/ns#"
   xmlns:rdf="http://www.w3.org/1999/02/22-rdf-syntax-ns#"
   xmlns:svg="http://www.w3.org/2000/svg"
   xmlns="http://www.w3.org/2000/svg"
   xmlns:sodipodi="http://sodipodi.sourceforge.net/DTD/sodipodi-0.dtd"
   xmlns:inkscape="http://www.inkscape.org/namespaces/inkscape"
   width="122"
   height="122"
   viewBox="0 0 122 122"
   fill="none"
   version="1.1"
   id="svg34"
   sodipodi:docname="alogo2.svg"
   inkscape:version="1.0.2-2 (e86c870879, 2021-01-15)">
  <metadata
     id="metadata40">
    <rdf:RDF>
      <cc:Work
         rdf:about="">
        <dc:format>image/svg+xml</dc:format>
        <dc:type
           rdf:resource="http://purl.org/dc/dcmitype/StillImage" />
        <dc:title />
      </cc:Work>
    </rdf:RDF>
  </metadata>
  <defs
     id="defs38" />
  <sodipodi:namedview
     pagecolor="#ffffff"
     bordercolor="#666666"
     borderopacity="1"
     objecttolerance="10"
     gridtolerance="10"
     guidetolerance="10"
     inkscape:pageopacity="0"
     inkscape:pageshadow="2"
     inkscape:window-width="1920"
     inkscape:window-height="1017"
     id="namedview36"
     showgrid="false"
     inkscape:zoom="5.1636796"
     inkscape:cx="45.988537"
     inkscape:cy="74.171385"
     inkscape:window-x="-8"
     inkscape:window-y="-8"
     inkscape:window-maximized="1"
     inkscape:current-layer="layer2"
     inkscape:document-rotation="0" />
  <g
     inkscape:groupmode="layer"
     id="layer2"
     inkscape:label="Layer 2"
     style="display:inline">
    <g
       transform="matrix(0.01653027,0,0,-0.01653027,-28.878544,126.14276)"
       fill="#414042"
       stroke="none"
       id="g10">
      <path
         d="m 2420,7560 c 0,-5 11,-44 25,-85 16,-47 30,-118 35,-183 9,-99 13,-114 60,-209 58,-117 134,-197 196,-209 44,-8 49,-17 23,-40 -12,-11 -33,-41 -47,-69 -22,-41 -27,-65 -28,-133 -1,-46 -7,-89 -13,-95 -14,-14 -14,-82 0,-110 19,-36 51,-67 71,-67 21,0 53,-58 63,-117 5,-31 3,-48 -9,-65 -9,-12 -16,-31 -16,-42 0,-33 -48,-103 -87,-128 -35,-21 -47,-23 -157,-20 -133,3 -158,-3 -223,-55 -45,-36 -96,-130 -148,-270 -14,-39 -63,-133 -107,-210 -45,-76 -106,-192 -136,-257 -45,-99 -54,-129 -54,-175 0,-75 94,-388 173,-580 58,-141 71,-175 101,-271 17,-51 48,-73 91,-66 22,5 27,2 27,-15 0,-29 62,-53 116,-45 32,4 44,2 48,-9 8,-23 25,-18 38,10 13,29 42,35 34,8 -19,-68 -25,-103 -20,-117 8,-21 -36,-197 -48,-190 -4,3 -8,16 -8,28 0,50 -67,60 -91,13 -7,-12 -20,-28 -30,-35 -23,-16 -31,-62 -34,-182 -1,-52 -6,-179 -10,-282 -6,-146 -5,-191 5,-203 28,-34 67,-10 89,55 9,26 39,267 41,323 0,4 3,7 8,7 4,0 6,-21 4,-47 -1,-27 -6,-165 -11,-308 -15,-395 -54,-586 -149,-728 -141,-209 -165,-296 -202,-732 -24,-286 -33,-348 -70,-482 -57,-204 -71,-306 -59,-435 5,-57 13,-160 18,-230 6,-87 13,-135 24,-151 27,-41 129,-56 262,-39 l 50,7 7,45 c 14,86 9,146 -22,290 -42,193 -43,305 -6,490 46,229 73,322 145,501 95,238 189,553 176,588 -4,9 17,62 49,126 32,64 82,194 119,310 36,110 98,300 138,423 39,122 87,253 105,289 19,37 34,79 34,94 0,31 55,220 76,261 18,34 92,84 106,70 6,-6 5,-35 -3,-77 -14,-82 -3,-220 41,-490 37,-230 47,-319 55,-480 3,-71 13,-188 22,-258 13,-97 14,-130 5,-136 -20,-12 -35,-205 -29,-361 3,-80 15,-197 27,-260 30,-161 35,-356 17,-580 -9,-102 -16,-228 -17,-280 0,-52 -8,-135 -16,-183 -21,-120 -14,-234 14,-257 26,-22 203,-37 245,-21 46,18 51,47 46,256 -2,105 -4,309 -3,455 0,286 -3,262 79,625 26,118 40,337 28,459 -5,59 -14,111 -20,114 -20,14 -24,53 -23,253 0,162 5,233 20,321 11,62 36,207 56,323 31,186 42,224 65,225 14,0 18,-96 7,-160 -7,-38 -9,-72 -5,-76 3,-3 26,-9 50,-11 l 43,-5 17,94 c 9,52 17,108 17,124 0,18 13,47 31,73 39,52 63,162 52,236 -4,28 -8,57 -8,65 0,8 -4,31 -9,50 -29,131 -43,180 -82,302 -24,75 -65,213 -90,305 -25,92 -68,221 -95,286 -72,172 -78,202 -159,797 -12,91 -58,190 -103,224 -18,14 -76,42 -129,64 -163,66 -212,120 -206,232 1,32 0,62 -4,65 -13,13 23,92 48,105 38,21 59,66 88,187 20,84 25,125 20,170 -7,74 -32,180 -50,215 -18,34 -18,48 -1,48 8,0 32,13 55,29 32,24 52,53 96,143 49,100 57,126 71,226 9,63 14,130 10,151 -3,20 -1,50 5,66 15,38 -1,53 -35,35 -48,-26 -182,-159 -228,-227 -45,-66 -93,-181 -117,-282 l -12,-49 -81,-4 c -45,-3 -89,-8 -97,-12 -13,-5 -18,5 -27,49 -16,76 -86,236 -135,308 -48,70 -163,194 -231,249 -46,36 -87,50 -87,28 z m 490,-1509 c 0,-9 -7,-26 -15,-37 -14,-19 -14,-19 -15,1 0,32 12,65 21,59 5,-3 9,-13 9,-23 z m -442,-286 c 4,-37 -21,-75 -38,-59 -17,17 -89,-66 -125,-143 -16,-35 -34,-63 -42,-63 -7,0 -10,-6 -8,-12 8,-20 -108,-250 -154,-308 -23,-28 -41,-56 -41,-61 0,-10 -37,-49 -46,-49 -3,0 -4,6 -1,14 3,8 2,16 -3,18 -15,5 65,159 112,215 24,29 54,82 68,118 14,38 30,65 38,65 11,0 12,3 4,13 -14,16 35,106 70,129 14,9 30,33 36,54 6,22 21,53 31,71 18,28 25,32 58,30 34,-2 38,-5 41,-32 z m 29,-17 c -3,-8 -6,-5 -6,6 -1,11 2,17 5,13 3,-3 4,-12 1,-19 z m 23,-37 c -11,-21 -30,-37 -30,-25 0,8 30,44 37,44 2,0 -1,-9 -7,-19 z m 941,-204 c -10,-9 -11,-8 -5,6 3,10 9,15 12,12 3,-3 0,-11 -7,-18 z m -1071,-52 c 0,-26 145,-499 168,-547 46,-97 73,-195 79,-283 5,-72 2,-90 -26,-171 -17,-50 -31,-98 -31,-105 0,-8 -24,-27 -53,-42 -44,-24 -65,-28 -141,-30 l -89,-2 -28,90 c -16,50 -45,173 -65,274 -19,101 -44,211 -55,245 -32,105 -29,122 60,269 43,73 98,171 122,219 37,73 59,104 59,83 z m 1098,-20 c -3,-3 -9,2 -12,12 -6,14 -5,15 5,6 7,-7 10,-15 7,-18 z m -720,-17 c 7,-7 12,-25 12,-40 0,-24 -4,-28 -29,-28 -39,0 -57,23 -43,55 12,27 40,33 60,13 z m 526,-19 c 30,-14 39,-34 26,-59 -13,-24 -43,-33 -83,-25 -44,10 -50,15 -37,30 7,8 9,18 6,24 -9,13 21,41 44,41 11,0 30,-5 44,-11 z m -150,-124 c 27,-25 47,-47 45,-50 -3,-2 -29,13 -58,35 -29,22 -57,40 -63,40 -5,0 -6,5 -3,10 11,18 30,10 79,-35 z m 91,5 c 8,-13 -5,-13 -25,0 -13,8 -13,10 2,10 9,0 20,-4 23,-10 z m 269,-22 c 2,-7 8,-42 14,-78 6,-36 24,-125 40,-198 33,-149 34,-175 10,-180 -13,-2 -18,6 -23,35 -3,21 -20,94 -37,163 -53,215 -53,216 -38,245 14,27 29,32 34,13 z m -389,-34 c 14,-9 25,-20 25,-25 0,-11 -56,16 -65,31 -9,15 13,12 40,-6 z m -55,-34 c 0,-28 4,-40 15,-40 36,0 44,-64 20,-175 -15,-74 -11,-235 7,-235 5,0 6,-4 3,-10 -3,-5 -1,-10 5,-10 6,0 9,-4 5,-9 -3,-5 -1,-12 4,-15 5,-3 23,-31 40,-61 36,-63 42,-145 16,-195 -31,-61 -46,-33 -76,138 -40,236 -70,521 -62,596 7,64 23,75 23,16 z m -144,15 c -3,-8 -1,-15 5,-15 6,0 9,-7 5,-15 -3,-10 1,-15 13,-15 10,0 24,-7 31,-15 10,-12 8,-21 -9,-49 -12,-19 -17,-36 -12,-38 5,-1 12,-27 14,-56 3,-29 12,-63 21,-76 14,-23 34,-142 28,-176 -10,-63 -3,-91 37,-151 43,-64 76,-157 68,-189 -3,-11 0,-17 7,-15 61,20 151,45 162,45 18,0 49,-63 41,-83 -3,-9 -21,-20 -39,-26 -18,-5 -77,-26 -131,-45 -54,-20 -113,-36 -131,-36 -29,0 -33,3 -29,20 4,13 -2,30 -16,44 l -22,23 68,26 c 37,14 59,26 47,26 -27,1 -90,58 -103,94 -6,16 -11,68 -10,117 1,67 -4,103 -21,149 -12,34 -19,65 -16,69 8,14 -16,82 -27,75 -6,-4 -7,-1 -2,7 4,7 3,15 -2,19 -19,13 -55,83 -78,153 -28,84 -26,89 50,124 59,28 59,28 51,9 z m -893,-194 c -2,-10 7,-45 21,-78 13,-32 32,-97 41,-144 9,-46 29,-149 45,-229 39,-196 45,-250 31,-250 -6,0 -16,12 -21,26 -20,52 -71,268 -90,382 -11,64 -27,140 -35,169 -8,28 -15,68 -15,90 0,21 -4,45 -10,53 -13,20 12,34 26,14 7,-8 10,-23 7,-33 z m 1415,-221 c 0,-8 -6,-1 -13,15 -8,17 -14,39 -14,50 0,13 5,8 14,-15 7,-19 13,-42 13,-50 z m 156,-56 c 9,-24 7,-34 -6,-34 -23,0 -41,18 -35,34 8,21 33,21 41,0 z m -19,-44 c 3,-6 -1,-7 -9,-4 -18,7 -21,14 -7,14 6,0 13,-4 16,-10 z m 87,-82 c 15,-17 40,-56 57,-87 31,-58 131,-303 131,-320 0,-37 -28,-3 -91,112 -40,72 -89,157 -110,187 -45,68 -69,114 -69,135 0,25 51,8 82,-27 z m -674,-329 c -2,-6 -8,-10 -13,-10 -5,0 -11,4 -13,10 -2,6 4,11 13,11 9,0 15,-5 13,-11 z m 492,-69 c 0,-32 -96,-170 -117,-170 -23,0 -12,24 54,118 41,58 63,76 63,52 z m -340,-46 c 0,-21 -4,-33 -10,-29 -6,4 -8,10 -5,15 3,5 1,12 -5,15 -8,5 -7,11 1,21 17,20 19,18 19,-22 z m -241,1 c 10,-9 12,-18 6,-24 -11,-10 -165,-21 -165,-12 0,19 34,50 58,54 40,7 85,-1 101,-18 z m 671,-31 c 0,-13 -9,-28 -20,-34 -10,-6 -49,-33 -85,-61 -37,-28 -68,-49 -71,-47 -3,4 70,112 116,171 21,27 23,27 41,11 11,-9 19,-27 19,-40 z m 314,-15 c 2,-13 6,-40 10,-59 l 7,-35 -17,30 c -10,17 -18,44 -19,61 -1,17 -6,38 -10,45 -5,9 -2,8 9,-2 10,-9 19,-27 20,-40 z m -289,-60 c 9,-41 -5,-54 -77,-72 -64,-17 -78,-9 -55,27 18,27 106,88 118,81 4,-3 11,-19 14,-36 z m -1095,-64 c -11,-33 -17,-46 -14,-30 10,54 27,110 30,100 2,-5 -5,-37 -16,-70 z m 368,54 c 64,-15 69,-28 7,-19 -37,6 -45,4 -41,-7 7,-17 6,-17 -51,8 -42,18 -45,22 -28,30 11,4 29,6 40,4 11,-3 44,-10 73,-16 z m 935,-57 c 9,-26 17,-75 19,-109 4,-53 2,-62 -14,-66 -16,-4 -18,2 -19,46 0,29 -3,82 -7,119 -9,76 -1,80 21,10 z m -223,-38 c 0,-8 -112,-56 -117,-50 -3,2 17,16 44,30 47,24 73,32 73,20 z m 16,-203 c -3,-93 -13,-207 -21,-253 -8,-46 -19,-113 -25,-149 -5,-36 -14,-77 -20,-90 -9,-22 -10,-22 -9,11 1,19 1,37 0,40 -1,3 -3,100 -5,215 -3,223 -17,322 -45,327 -25,5 69,67 103,68 h 29 z m -1212,-80 c -3,-28 -10,-49 -14,-46 -4,3 -4,24 1,47 4,24 8,47 9,52 0,5 2,7 5,4 4,-3 3,-29 -1,-57 z m 346,-33 c 0,-41 -7,-49 -37,-42 -18,5 -21,12 -16,42 2,21 10,47 16,60 l 11,23 13,-23 c 7,-13 12,-40 13,-60 z m 1090,-3 c 0,-7 -7,-18 -15,-25 -13,-11 -15,-7 -15,25 0,32 2,36 15,25 8,-7 15,-18 15,-25 z m -1460,-27 c 0,-2 -11,-91 -25,-198 -14,-107 -25,-210 -25,-227 0,-18 -4,-33 -10,-33 -15,0 -12,49 15,258 14,105 25,194 25,197 0,3 5,5 10,5 6,0 10,-1 10,-2 z m -4,-248 c -14,-112 -28,-205 -31,-208 -8,-8 -6,12 20,232 29,242 27,227 32,200 2,-12 -7,-113 -21,-224 z m 361,159 c 4,-90 -16,-236 -60,-449 -8,-36 -19,-99 -26,-140 -7,-41 -26,-138 -42,-215 -17,-77 -31,-148 -32,-157 -2,-22 -23,-24 -31,-3 -9,25 68,485 82,485 4,0 7,17 7,38 2,143 25,365 46,447 20,75 53,72 56,-6 z m 1103,47 c 0,-2 -7,-6 -15,-10 -8,-3 -15,-1 -15,4 0,6 7,10 15,10 8,0 15,-2 15,-4 z m -10,-60 c 0,-2 -7,-9 -15,-16 -12,-10 -15,-10 -15,4 0,9 7,16 15,16 8,0 15,-2 15,-4 z m -290,-811 c 0,-28 -15,-34 -24,-9 -10,25 -7,34 9,34 9,0 15,-9 15,-25 z m 0,-180 c 0,-8 -7,-15 -15,-15 -8,0 -15,7 -15,15 0,8 7,15 15,15 8,0 15,-7 15,-15 z m -1020,-79 c 0,-6 -4,-17 -9,-24 -11,-18 -36,12 -27,33 6,16 36,10 36,-9 z m 1035,-16 c -3,-5 -10,-10 -16,-10 -5,0 -9,5 -9,10 0,6 7,10 16,10 8,0 12,-4 9,-10 z m -1072,-76 c 3,-3 1,-14 -6,-25 -13,-21 -39,-7 -30,17 5,14 25,19 36,8 z m 1056,-56 c -2,-36 -14,-74 -21,-63 -3,6 -10,27 -16,48 -10,35 -9,37 14,37 19,0 24,-5 23,-22 z m -1098,-28 c 10,-6 19,-19 19,-29 0,-10 -24,-79 -54,-152 -118,-292 -142,-385 -186,-714 -20,-156 -28,-175 -73,-175 -16,0 -18,5 -13,33 3,17 13,82 21,142 8,61 20,135 25,165 5,30 14,112 20,181 6,69 21,164 34,210 27,99 99,292 121,326 17,25 53,30 86,13 z m 1044,-916 c -6,-86 -14,-109 -30,-85 -3,5 2,53 12,107 20,116 28,107 18,-22 z m -15,-138 c 0,-8 3,-21 6,-30 4,-10 1,-16 -9,-16 -15,0 -27,20 -27,46 0,8 7,14 15,14 8,0 15,-6 15,-14 z m -1293,-42 c -3,-3 -12,-4 -19,-1 -8,3 -5,6 6,6 11,1 17,-2 13,-5 z m 1294,-145 c 4,-68 12,-153 18,-189 18,-107 18,-107 -39,-119 -28,-6 -58,-11 -65,-11 -23,0 -18,58 15,187 17,64 30,141 30,173 0,66 7,93 24,87 7,-2 13,-50 17,-128 z m -1296,106 c 0,-5 -15,-11 -32,-13 -25,-3 -33,1 -33,13 0,12 8,16 33,13 17,-2 32,-7 32,-13 z m -18,-41 c -3,-3 -12,-4 -19,-1 -8,3 -5,6 6,6 11,1 17,-2 13,-5 z m 0,-172 c 1,-124 8,-191 29,-291 6,-31 5,-34 -12,-27 -38,15 -88,20 -80,8 10,-16 -36,-16 -56,1 -14,11 -14,24 -2,127 7,63 18,135 23,160 6,25 13,64 16,88 8,48 27,72 58,72 21,0 22,-3 24,-138 z M 3417,664 c -3,-3 -12,-4 -19,-1 -8,3 -5,6 6,6 11,1 17,-2 13,-5 z M 2040,580 c 12,-8 9,-10 -12,-10 -16,0 -28,5 -28,10 0,13 20,13 40,0 z m 1386,-41 c 3,-6 1,-16 -4,-21 -13,-13 -45,8 -36,23 7,12 31,11 40,-2 z m -6,-84 c 0,-8 -9,-15 -20,-15 -11,0 -20,7 -20,15 0,8 9,15 20,15 11,0 20,-7 20,-15 z M 2185,420 c 0,-19 -32,-25 -51,-9 -12,10 -12,14 -2,21 20,12 53,5 53,-12 z m 3,-77 c -2,-12 -12,-18 -28,-18 -16,0 -26,6 -28,18 -3,13 3,17 28,17 25,0 31,-4 28,-17 z"
         id="path2-2" />
      <path
         d="m 3185,4370 c -3,-6 1,-7 9,-4 18,7 21,14 7,14 -6,0 -13,-4 -16,-10 z"
         id="path4-9" />
      <path
         d="m 3190,4336 c 7,-7 13,-7 20,0 6,6 3,10 -10,10 -13,0 -16,-4 -10,-10 z"
         id="path6-9" />
      <path
         d="m 3076,4332 c -2,-4 4,-8 14,-8 10,0 16,4 14,8 -3,4 -9,8 -14,8 -5,0 -11,-4 -14,-8 z"
         id="path8-9" />
    </g>
  </g>
  <g
     inkscape:groupmode="layer"
     id="layer3"
     inkscape:label="Layer 3"
     style="display:inline">
    <text
       xml:space="preserve"
       style="font-style:normal;font-variant:normal;font-weight:normal;font-stretch:normal;font-size:35.8866px;line-height:1.25;font-family:'Cooper Black';-inkscape-font-specification:'Cooper Black, Normal';font-variant-ligatures:normal;font-variant-caps:normal;font-variant-numeric:normal;font-variant-east-asian:normal;stroke-width:1.34574"
       x="44.102962"
       y="45.056091"
       id="text861"
       fill="#414042"
       transform="scale(0.79651684,1.2554662)"><tspan
         sodipodi:role="line"
         id="tspan859"
         x="44.102962"
         y="45.056091"
         style="stroke-width:1.34574">Black</tspan></text>
    <text
       xml:space="preserve"
       style="font-style:normal;font-variant:normal;font-weight:normal;font-stretch:normal;font-size:23.8703px;line-height:1.25;font-family:'Cooper Black';-inkscape-font-specification:'Cooper Black, Normal';font-variant-ligatures:normal;font-variant-caps:normal;font-variant-numeric:normal;font-variant-east-asian:normal;fill:#aa0000;stroke:#000000;stroke-width:0.495;stroke-miterlimit:4;stroke-dasharray:none;stroke-opacity:1"
       x="32.552391"
       y="79.636864"
       id="text905"
       fill="#414042"
       transform="scale(1.1136636,0.89793723)"><tspan
         sodipodi:role="line"
         id="tspan903"
         x="32.552391"
         y="79.636864"
         style="fill:#aa0000;stroke:#000000;stroke-width:0.495;stroke-miterlimit:4;stroke-dasharray:none;stroke-opacity:1">Burn</tspan></text>
  </g>
</svg>
