<?xml version="1.0" encoding="UTF-8" standalone="no"?>
<svg
   xmlns:dc="http://purl.org/dc/elements/1.1/"
   xmlns:cc="http://creativecommons.org/ns#"
   xmlns:rdf="http://www.w3.org/1999/02/22-rdf-syntax-ns#"
   xmlns:svg="http://www.w3.org/2000/svg"
   xmlns="http://www.w3.org/2000/svg"
   xmlns:sodipodi="http://sodipodi.sourceforge.net/DTD/sodipodi-0.dtd"
   xmlns:inkscape="http://www.inkscape.org/namespaces/inkscape"
   width="1152"
   height="700"
   viewBox="0 0 1152 700"
   fill="none"
   version="1.1"
   id="svg193"
   sodipodi:docname="BlackburnLogos@1.svg"
   inkscape:version="1.0.2-2 (e86c870879, 2021-01-15)">
  <metadata
     id="metadata197">
    <rdf:RDF>
      <cc:Work
         rdf:about="">
        <dc:format>image/svg+xml</dc:format>
        <dc:type
           rdf:resource="http://purl.org/dc/dcmitype/StillImage" />
      </cc:Work>
    </rdf:RDF>
  </metadata>
  <sodipodi:namedview
     pagecolor="#ffffff"
     bordercolor="#666666"
     borderopacity="1"
     objecttolerance="10"
     gridtolerance="10"
     guidetolerance="10"
     inkscape:pageopacity="0"
     inkscape:pageshadow="2"
     inkscape:window-width="1920"
     inkscape:window-height="1017"
     id="namedview195"
     showgrid="false"
     inkscape:zoom="0.48914931"
     inkscape:cx="268.7983"
     inkscape:cy="197.02412"
     inkscape:window-x="-8"
     inkscape:window-y="-8"
     inkscape:window-maximized="1"
     inkscape:current-layer="svg193" />
  <rect
     width="1152"
     height="700"
     fill="none"
     id="rect2" />
  <g
     clip-path="url(#clip0)"
     id="g186">
    <path
       d="M270.755 17.8356L270.755 17.8351C275.62 11.6299 282.16 6.6902 289.735 3.50474L289.541 3.04383L289.735 3.50472C297.311 0.318497 305.658 -1.00285 313.959 -0.328441L314 -0.826799L313.96 -0.328434L944.483 50.7902C954.366 51.591 963.734 55.1851 971.308 61.073C978.874 66.9603 984.266 74.8512 986.753 83.6588L987.234 83.523L986.753 83.6589L1073.37 390.22C1075.48 397.655 1075.42 405.464 1073.22 412.875L1073.7 413.017L1073.22 412.875L988.56 698.167L114.529 697.164L77.6577 281.59C77.6577 281.59 77.6576 281.59 77.6576 281.59C76.7332 271.127 79.896 260.7 86.5858 252.18C86.5859 252.18 86.5859 252.18 86.5859 252.18L270.755 17.8356Z"
       stroke="black"
       id="path4" />
    <path
       d="M1018.86 699.649H89.0531C88.7429 699.649 88.4451 699.534 88.2261 699.333C88.0071 699.133 87.884 698.86 87.884 698.574C87.884 698.287 88.0071 698.015 88.2261 697.814C88.4451 697.614 88.7429 697.499 89.0531 697.499H1018.86C1019.17 697.499 1019.47 697.614 1019.69 697.814C1019.91 698.015 1020.03 698.287 1020.03 698.574C1020.03 698.86 1019.91 699.133 1019.69 699.333C1019.47 699.534 1019.17 699.649 1018.86 699.649Z"
       fill="#B2B6BB"
       id="path6" />
    <path
       d="M936.917 176.229H345.931C341.627 176.229 338.138 179.437 338.138 183.395V585.852C338.138 589.81 341.627 593.018 345.931 593.018H936.917C941.219 593.018 944.711 589.81 944.711 585.852V183.395C944.711 179.437 941.219 176.229 936.917 176.229V176.229Z"
       fill="white"
       id="path8" />
    <path
       d="M937.736 593.771H345.105C343.038 593.771 341.055 593.015 339.593 591.672C338.132 590.328 337.311 588.505 337.311 586.604V182.758C337.311 180.857 338.132 179.034 339.593 177.69C341.055 176.346 343.038 175.591 345.105 175.591H937.736C939.801 175.591 941.788 176.346 943.246 177.69C944.711 179.034 945.529 180.857 945.529 182.758V586.604C945.529 588.505 944.711 590.328 943.246 591.672C941.788 593.015 939.801 593.771 937.736 593.771ZM346.733 592.252H936.068C938.133 592.252 940.121 591.496 941.578 590.152C943.043 588.809 943.862 586.986 943.862 585.085V184.27C943.862 182.369 943.043 180.546 941.578 179.202C940.121 177.859 938.133 177.103 936.068 177.103H346.733C344.667 177.103 342.684 177.859 341.222 179.202C339.761 180.546 338.94 182.369 338.94 184.27V585.085C338.94 586.986 339.761 588.809 341.222 590.152C342.684 591.496 344.667 592.252 346.733 592.252V592.252Z"
       fill="#4D61FC"
       id="path10" />
    <g
       opacity="0.6"
       id="g14">
      <path
         opacity="0.6"
         d="M937.736 593.771H345.105C343.038 593.771 341.055 593.015 339.593 591.672C338.132 590.328 337.311 588.505 337.311 586.604V182.758C337.311 180.857 338.132 179.034 339.593 177.69C341.055 176.346 343.038 175.591 345.105 175.591H937.736C939.801 175.591 941.788 176.346 943.246 177.69C944.711 179.034 945.529 180.857 945.529 182.758V586.604C945.529 588.505 944.711 590.328 943.246 591.672C941.788 593.015 939.801 593.771 937.736 593.771ZM346.733 592.252H936.068C938.133 592.252 940.12 591.496 941.578 590.152C943.043 588.809 943.862 586.986 943.862 585.085V184.27C943.862 182.369 943.043 180.546 941.578 179.202C940.12 177.859 938.133 177.103 936.068 177.103H346.733C344.667 177.103 342.684 177.859 341.222 179.202C339.761 180.546 338.94 182.369 338.94 184.27V585.085C338.94 586.986 339.761 588.809 341.222 590.152C342.684 591.496 344.667 592.252 346.733 592.252V592.252Z"
         fill="white"
         id="path12" />
    </g>
    <path
       d="M345.105 175.591H937.65C939.715 175.591 941.702 176.346 943.16 177.69C944.625 179.034 945.443 180.857 945.443 182.758V210.198H337.311V182.758C337.311 180.857 338.132 179.034 339.593 177.69C341.055 176.346 343.038 175.591 345.105 175.591Z"
       fill="#B2B6BB"
       id="path16" />
    <path
       opacity="0.08"
       d="M337.311 175.591V210.205V586.604C337.311 588.505 338.132 590.328 339.593 591.672C341.055 593.015 343.038 593.771 345.105 593.771H937.736C939.801 593.771 941.788 593.015 943.246 591.672C944.711 590.328 945.529 588.505 945.529 586.604V182.758C945.529 180.857 944.711 179.034 943.246 177.69C941.788 176.346 939.801 175.591 937.736 175.591H337.311Z"
       fill="black"
       id="path18" />
    <path
       d="M893.918 154.178H302.933C298.628 154.178 295.139 157.386 295.139 161.344V563.801C295.139 567.759 298.628 570.967 302.933 570.967H893.918C898.221 570.967 901.712 567.759 901.712 563.801V161.344C901.712 157.386 898.221 154.178 893.918 154.178V154.178Z"
       fill="white"
       id="path20" />
    <path
       d="M894.737 571.72H302.106C300.039 571.72 298.057 570.964 296.595 569.62C295.133 568.277 294.312 566.454 294.312 564.553V160.692C294.312 158.791 295.133 156.968 296.595 155.624C298.057 154.281 300.039 153.525 302.106 153.525H894.737C896.802 153.525 898.789 154.281 900.247 155.624C901.712 156.968 902.531 158.791 902.531 160.692V564.553C902.531 566.454 901.712 568.277 900.247 569.62C898.789 570.964 896.802 571.72 894.737 571.72ZM303.758 570.207H893.084C895.15 570.207 897.137 569.452 898.595 568.108C900.06 566.765 900.878 564.942 900.878 563.041V162.226C900.878 160.325 900.06 158.502 898.595 157.158C897.137 155.814 895.15 155.059 893.084 155.059H303.758C301.691 155.059 299.709 155.814 298.247 157.158C296.786 158.502 295.964 160.325 295.964 162.226V563.041C295.964 564.942 296.786 566.765 298.247 568.108C299.709 569.452 301.691 570.207 303.758 570.207Z"
       fill="#4D61FC"
       id="path22" />
    <g
       opacity="0.6"
       id="g26">
      <path
         opacity="0.6"
         d="M894.737 571.72H302.106C300.039 571.72 298.057 570.964 296.595 569.62C295.133 568.277 294.312 566.454 294.312 564.553V160.692C294.312 158.791 295.133 156.968 296.595 155.624C298.057 154.281 300.039 153.525 302.106 153.525H894.737C896.802 153.525 898.789 154.281 900.247 155.624C901.712 156.968 902.531 158.791 902.531 160.692V564.553C902.531 566.454 901.712 568.277 900.247 569.62C898.789 570.964 896.802 571.72 894.737 571.72ZM303.758 570.207H893.084C895.15 570.207 897.137 569.452 898.595 568.108C900.06 566.765 900.878 564.941 900.878 563.041V162.226C900.878 160.325 900.06 158.502 898.595 157.158C897.137 155.814 895.15 155.059 893.084 155.059H303.758C301.691 155.059 299.709 155.814 298.247 157.158C296.786 158.502 295.964 160.325 295.964 162.226V563.041C295.964 564.941 296.786 566.765 298.247 568.108C299.709 569.452 301.691 570.207 303.758 570.207Z"
         fill="white"
         id="path24" />
    </g>
    <path
       d="M302.106 153.525H894.643C896.708 153.525 898.696 154.281 900.153 155.624C901.619 156.968 902.437 158.791 902.437 160.692V188.132H294.312V160.692C294.312 158.791 295.133 156.968 296.595 155.624C298.057 154.281 300.039 153.525 302.106 153.525Z"
       fill="#A1A4A9"
       id="path28" />
    <path
       opacity="0.03"
       d="M294.312 153.525V188.14V564.553C294.312 566.454 295.133 568.277 296.595 569.62C298.057 570.964 300.039 571.72 302.106 571.72H894.737C896.802 571.72 898.789 570.964 900.247 569.62C901.712 568.277 902.531 566.454 902.531 564.553V160.692C902.531 158.791 901.712 156.968 900.247 155.624C898.789 154.281 896.802 153.525 894.737 153.525H294.312Z"
       fill="black"
       id="path30" />
    <path
       d="M846.781 132.886H255.794C251.49 132.886 248.001 136.094 248.001 140.052V542.509C248.001 546.467 251.49 549.675 255.794 549.675H846.781C851.083 549.675 854.575 546.467 854.575 542.509V140.052C854.575 136.094 851.083 132.886 846.781 132.886V132.886Z"
       fill="white"
       id="path32" />
    <path
       d="M846.781 550.392H255.795C253.521 550.392 251.34 549.561 249.732 548.083C248.125 546.605 247.221 544.6 247.221 542.509V140.052C247.221 137.962 248.125 135.957 249.732 134.478C251.34 133 253.521 132.169 255.795 132.169H846.781C849.057 132.169 851.239 133 852.845 134.478C854.45 135.957 855.354 137.962 855.354 140.052V542.509C855.354 544.6 854.45 546.605 852.845 548.083C851.239 549.561 849.057 550.392 846.781 550.392ZM255.795 133.602C253.934 133.602 252.15 134.282 250.834 135.492C249.52 136.701 248.78 138.342 248.78 140.052V542.509C248.78 544.219 249.52 545.86 250.834 547.07C252.15 548.279 253.934 548.959 255.795 548.959H846.781C848.644 548.959 850.428 548.279 851.738 547.07C853.055 545.86 853.795 544.219 853.795 542.509V140.052C853.795 138.342 853.055 136.701 851.738 135.492C850.428 134.282 848.644 133.602 846.781 133.602H255.795Z"
       fill="#4D61FC"
       id="path34" />
    <g
       opacity="0.6"
       id="g38">
      <path
         opacity="0.6"
         d="M846.781 550.392H255.794C253.521 550.392 251.34 549.561 249.732 548.083C248.124 546.604 247.221 544.6 247.221 542.509V140.052C247.221 137.962 248.124 135.957 249.732 134.478C251.34 133 253.521 132.169 255.794 132.169H846.781C849.057 132.169 851.239 133 852.844 134.478C854.45 135.957 855.354 137.962 855.354 140.052V542.509C855.354 544.6 854.45 546.604 852.844 548.083C851.239 549.561 849.057 550.392 846.781 550.392ZM255.794 133.602C253.934 133.602 252.15 134.282 250.834 135.492C249.52 136.701 248.78 138.342 248.78 140.052V542.509C248.78 544.219 249.52 545.86 250.834 547.07C252.15 548.279 253.934 548.959 255.794 548.959H846.781C848.643 548.959 850.428 548.279 851.738 547.07C853.055 545.86 853.795 544.219 853.795 542.509V140.052C853.795 138.342 853.055 136.701 851.738 135.492C850.428 134.282 848.643 133.602 846.781 133.602H255.794Z"
         fill="white"
         id="path36" />
    </g>
    <path
       d="M817.624 220.69H284.951V475.681H817.624V220.69Z"
       fill="#DADDDF"
       id="path40" />
    <path
       opacity="0.5"
       d="M817.624 220.69H284.951V475.681H817.624V220.69Z"
       fill="white"
       id="path42" />
    <path
       d="M784.749 189.738H321.536V200.502H784.749V189.738Z"
       fill="#4D61FC"
       id="path44" />
    <path
       opacity="0.7"
       d="M784.749 189.738H321.536V200.502H784.749V189.738Z"
       fill="white"
       id="path46" />
    <path
       d="M802.675 448.291H299.9V449.008H802.675V448.291Z"
       fill="white"
       id="path48" />
    <path
       d="M303.915 531.738C314.461 531.738 323.01 523.877 323.01 514.18C323.01 504.483 314.461 496.622 303.915 496.622C293.369 496.622 284.82 504.483 284.82 514.18C284.82 523.877 293.369 531.738 303.915 531.738Z"
       fill="#E5E5E5"
       id="path50" />
    <path
       d="M313.741 522.278C313.741 516.545 309.338 511.836 303.913 511.836C298.489 511.836 294.085 516.509 294.085 522.278C297.016 524.014 300.428 524.937 303.913 524.937C307.399 524.937 310.811 524.014 313.741 522.278Z"
       fill="#DADDDF"
       id="path52" />
    <path
       d="M303.915 513.248C306.863 513.248 309.253 511.05 309.253 508.339C309.253 505.628 306.863 503.43 303.915 503.43C300.966 503.43 298.576 505.628 298.576 508.339C298.576 511.05 300.966 513.248 303.915 513.248Z"
       fill="white"
       id="path54" />
    <path
       d="M536.904 502.584H331.356V505.222H536.904V502.584Z"
       fill="#B2B6BB"
       id="path56" />
    <path
       d="M462.964 514.395H331.153V517.032H462.964V514.395Z"
       fill="#B2B6BB"
       id="path58" />
    <path
       d="M791.764 457.629H790.914V461.513H791.764V457.629Z"
       fill="white"
       id="path60" />
    <path
       d="M795.084 457.629H790.961V458.41H795.084V457.629Z"
       fill="white"
       id="path62" />
    <path
       d="M802.145 457.65H797.921V458.431H802.145V457.65Z"
       fill="white"
       id="path64" />
    <path
       d="M802.145 457.693H801.296V461.484H802.145V457.693Z"
       fill="white"
       id="path66" />
    <path
       d="M802.145 463.735H801.296V467.619H802.145V463.735Z"
       fill="white"
       id="path68" />
    <path
       d="M802.099 466.831H797.976V467.612H802.099V466.831Z"
       fill="white"
       id="path70" />
    <path
       d="M795.139 466.809H790.914V467.59H795.139V466.809Z"
       fill="white"
       id="path72" />
    <path
       d="M791.772 463.756H790.922V467.547H791.772V463.756Z"
       fill="white"
       id="path74" />
    <path
       d="M749.942 461.384H316.968C316.314 461.384 315.783 461.872 315.783 462.473V462.767C315.783 463.369 316.314 463.857 316.968 463.857H749.942C750.597 463.857 751.127 463.369 751.127 462.767V462.473C751.127 461.872 750.597 461.384 749.942 461.384Z"
       fill="white"
       id="path76" />
    <path
       d="M551.252 461.384H316.968C316.314 461.384 315.783 461.872 315.783 462.473V462.767C315.783 463.369 316.314 463.857 316.968 463.857H551.252C551.906 463.857 552.436 463.369 552.436 462.767V462.473C552.436 461.872 551.906 461.384 551.252 461.384Z"
       fill="#4D61FC"
       id="path78" />
    <path
       opacity="0.1"
       d="M551.252 461.384H316.968C316.314 461.384 315.783 461.872 315.783 462.473V462.767C315.783 463.369 316.314 463.857 316.968 463.857H551.252C551.906 463.857 552.436 463.369 552.436 462.767V462.473C552.436 461.872 551.906 461.384 551.252 461.384Z"
       fill="black"
       id="path80" />
    <path
       d="M308.988 462.617L298.723 457.17V468.063L308.988 462.617Z"
       fill="white"
       id="path82" />
    <path
       d="M784.734 293.186L792.512 289.051V297.314L784.734 293.186Z"
       fill="#F4F4F4"
       id="path84" />
    <path
       d="M789.153 290.857H784.734V295.53H789.153V290.857Z"
       fill="#F4F4F4"
       id="path86" />
    <path
       d="M793.751 290.406C794.172 290.735 794.5 291.144 794.733 291.603C794.959 292.063 795.084 292.563 795.084 293.068C795.084 293.573 794.959 294.073 794.733 294.533C794.5 294.992 794.172 295.401 793.751 295.73"
       fill="#F4F4F4"
       id="path88" />
    <path
       d="M795.817 289.639C796.386 290.039 796.853 290.557 797.173 291.151C797.492 291.744 797.664 292.398 797.664 293.061C797.664 293.723 797.492 294.377 797.173 294.97C796.853 295.564 796.386 296.081 795.817 296.483"
       fill="#F4F4F4"
       id="path90" />
    <path
       d="M791.413 407.356C791.133 407.356 790.86 407.253 790.665 407.07C790.462 406.887 790.353 406.639 790.353 406.381V304.294C790.353 304.036 790.462 303.788 790.665 303.605C790.86 303.422 791.133 303.32 791.413 303.32C791.694 303.32 791.966 303.422 792.161 303.605C792.364 303.788 792.473 304.036 792.473 304.294V406.381C792.473 406.639 792.364 406.887 792.161 407.07C791.966 407.253 791.694 407.356 791.413 407.356Z"
       fill="white"
       id="path92" />
    <path
       d="M791.413 407.356C791.133 407.356 790.86 407.253 790.665 407.071C790.462 406.888 790.353 406.64 790.353 406.381V336.085C790.353 335.826 790.462 335.578 790.665 335.395C790.86 335.213 791.133 335.11 791.413 335.11C791.694 335.11 791.966 335.213 792.161 335.395C792.364 335.578 792.473 335.826 792.473 336.085V406.381C792.473 406.64 792.364 406.888 792.161 407.071C791.966 407.253 791.694 407.356 791.413 407.356Z"
       fill="#4D61FC"
       id="path94" />
    <path
       opacity="0.1"
       d="M791.413 407.356C791.133 407.356 790.86 407.253 790.665 407.071C790.462 406.888 790.353 406.64 790.353 406.381V336.085C790.353 335.826 790.462 335.578 790.665 335.395C790.86 335.213 791.133 335.11 791.413 335.11C791.694 335.11 791.966 335.213 792.161 335.395C792.364 335.578 792.473 335.826 792.473 336.085V406.381C792.473 406.64 792.364 406.888 792.161 407.071C791.966 407.253 791.694 407.356 791.413 407.356Z"
       fill="black"
       id="path96" />
    <path
       d="M812.932 504.641C812.589 504.641 812.254 504.548 811.973 504.373C811.685 504.198 811.467 503.949 811.334 503.659C811.202 503.368 811.171 503.049 811.233 502.74C811.303 502.431 811.467 502.148 811.708 501.925C811.95 501.703 812.262 501.551 812.597 501.49C812.932 501.428 813.275 501.46 813.594 501.58C813.906 501.701 814.179 501.905 814.374 502.166C814.561 502.428 814.662 502.735 814.662 503.05C814.662 503.259 814.615 503.466 814.53 503.66C814.444 503.853 814.319 504.029 814.156 504.177C814 504.325 813.805 504.443 813.594 504.522C813.384 504.602 813.158 504.642 812.932 504.641V504.641Z"
       fill="#868A91"
       id="path98" />
    <path
       d="M806.814 504.641C806.471 504.641 806.136 504.548 805.855 504.373C805.567 504.198 805.349 503.949 805.216 503.659C805.084 503.368 805.052 503.049 805.115 502.74C805.185 502.431 805.349 502.148 805.59 501.925C805.832 501.703 806.144 501.551 806.479 501.49C806.814 501.428 807.157 501.46 807.476 501.58C807.796 501.701 808.061 501.905 808.256 502.166C808.443 502.428 808.544 502.735 808.544 503.05C808.544 503.259 808.497 503.466 808.411 503.66C808.326 503.853 808.201 504.029 808.037 504.177C807.881 504.325 807.687 504.443 807.476 504.522C807.266 504.602 807.04 504.642 806.814 504.641V504.641Z"
       fill="#868A91"
       id="path100" />
    <path
       d="M800.696 504.641C801.654 504.641 802.426 503.929 802.426 503.05C802.426 502.171 801.654 501.459 800.696 501.459C799.737 501.459 798.965 502.171 798.965 503.05C798.965 503.929 799.737 504.641 800.696 504.641Z"
       fill="#868A91"
       id="path102" />
    <path
       d="M571.119 366.409C582.701 355.76 583.211 338.964 572.26 328.895C561.309 318.825 543.043 319.294 531.462 329.944C519.88 340.593 519.369 357.389 530.321 367.458C541.272 377.528 559.538 377.059 571.119 366.409Z"
       fill="#DADDDF"
       id="path104" />
    <path
       d="M567.767 348.182L541.143 334.05V362.314L567.767 348.182Z"
       fill="white"
       id="path106" />
    <path
       d="M284.585 190.075H304.343"
       stroke="#4D61FC"
       stroke-width="2.12"
       stroke-miterlimit="10"
       id="path108" />
    <path
       d="M284.585 195.12H304.343"
       stroke="#4D61FC"
       stroke-width="2.12"
       stroke-miterlimit="10"
       id="path110" />
    <path
       d="M284.585 200.165H304.343"
       stroke="#4D61FC"
       stroke-width="2.12"
       stroke-miterlimit="10"
       id="path112" />
    <path
       d="M254.968 132.255H847.513C849.579 132.255 851.566 133.011 853.024 134.354C854.489 135.699 855.307 137.521 855.307 139.422V166.862H247.174V139.422C247.174 137.521 247.995 135.699 249.457 134.354C250.919 133.011 252.901 132.255 254.968 132.255Z"
       fill="#868A91"
       id="path114" />
    <path
       d="M268.265 155.066C271.235 155.066 273.642 152.852 273.642 150.121C273.642 147.39 271.235 145.176 268.265 145.176C265.294 145.176 262.887 147.39 262.887 150.121C262.887 152.852 265.294 155.066 268.265 155.066V155.066Z"
       fill="white"
       id="path116" />
    <path
       d="M285.333 155.066C288.304 155.066 290.711 152.852 290.711 150.121C290.711 147.39 288.304 145.176 285.333 145.176C282.364 145.176 279.956 147.39 279.956 150.121C279.956 152.852 282.364 155.066 285.333 155.066Z"
       fill="white"
       id="path118" />
    <path
       d="M302.41 155.066C305.38 155.066 307.787 152.852 307.787 150.121C307.787 147.39 305.38 145.176 302.41 145.176C299.44 145.176 297.032 147.39 297.032 150.121C297.032 152.852 299.44 155.066 302.41 155.066Z"
       fill="white"
       id="path120" />
    <path
       d="M800.337 200.108C800.259 200.013 800.212 199.894 800.22 199.774C800.236 199.653 800.29 199.539 800.384 199.455L804.546 195.987C804.592 195.948 804.647 195.919 804.709 195.899C804.772 195.881 804.834 195.874 804.896 195.877C804.959 195.882 805.021 195.897 805.076 195.923C805.13 195.95 805.185 195.985 805.224 196.03L805.754 196.61C805.832 196.705 805.878 196.825 805.871 196.945C805.855 197.065 805.801 197.179 805.707 197.263L801.545 200.731C801.498 200.77 801.444 200.8 801.381 200.819C801.319 200.837 801.257 200.845 801.194 200.841C801.132 200.837 801.07 200.821 801.015 200.795C800.961 200.769 800.906 200.733 800.867 200.688L800.337 200.108Z"
       fill="#4D61FC"
       id="path122" />
    <path
       d="M809.487 189.143C810.017 189.137 810.547 189.215 811.046 189.372C812.075 189.703 812.948 190.358 813.509 191.223C814.062 192.088 814.273 193.106 814.093 194.098C813.906 195.089 813.353 195.989 812.519 196.639C811.685 197.289 810.625 197.647 809.534 197.65C809.004 197.652 808.474 197.572 807.975 197.413C806.938 197.086 806.066 196.432 805.504 195.567C804.943 194.701 804.733 193.681 804.912 192.687C805.099 191.694 805.652 190.793 806.494 190.143C807.328 189.494 808.388 189.139 809.487 189.143ZM809.487 190.29C808.786 190.291 808.1 190.493 807.531 190.868C806.962 191.243 806.525 191.772 806.299 192.382C806.151 192.766 806.089 193.173 806.12 193.579C806.144 193.985 806.26 194.382 806.455 194.747C806.744 195.302 807.211 195.765 807.788 196.076C808.365 196.389 809.027 196.536 809.698 196.499C810.368 196.462 811.007 196.243 811.545 195.869C812.075 195.497 812.472 194.986 812.69 194.403C812.839 194.019 812.901 193.612 812.87 193.206C812.846 192.8 812.729 192.402 812.535 192.038C812.34 191.671 812.067 191.343 811.74 191.073C811.404 190.802 811.023 190.594 810.602 190.462C810.243 190.348 809.869 190.29 809.495 190.29H809.487Z"
       fill="#4D61FC"
       id="path124" />
    <path
       d="M854.73 657.61H916.466C919.661 657.61 922.724 658.778 924.977 660.849C927.237 662.928 928.507 665.744 928.507 668.682C928.507 671.685 927.206 674.566 924.899 676.694C922.584 678.816 919.451 680.013 916.185 680.013H854.746V657.61H854.73Z"
       fill="white"
       id="path126" />
    <path
       d="M983.493 666.826V670.194C983.501 671.922 983.033 673.62 982.137 675.132C981.311 676.587 980.079 677.805 978.56 678.665C977.04 679.525 975.302 679.991 973.517 680.013H852.712C852.517 680.005 852.322 679.962 852.143 679.891C851.964 679.812 851.8 679.704 851.668 679.575C851.535 679.439 851.426 679.282 851.364 679.11C851.293 678.945 851.262 678.758 851.27 678.579V678.078C851.262 677.898 851.293 677.712 851.364 677.547C851.426 677.375 851.535 677.218 851.668 677.089C851.8 676.952 851.964 676.845 852.143 676.766C852.322 676.695 852.517 676.651 852.712 676.644H926.333C926.73 676.171 927.081 675.655 927.369 675.118C928.087 673.778 928.453 672.309 928.445 670.818V666.518C928.445 665.751 928.344 664.977 928.149 664.232C927.822 663.028 927.245 661.903 926.442 660.907H852.712C852.517 660.9 852.322 660.856 852.143 660.785C851.964 660.706 851.8 660.599 851.668 660.47C851.535 660.333 851.426 660.176 851.364 660.004C851.293 659.839 851.262 659.653 851.27 659.473V658.965C851.262 658.785 851.293 658.599 851.364 658.434C851.426 658.262 851.535 658.105 851.668 657.976C851.8 657.839 851.964 657.732 852.143 657.653C852.322 657.581 852.517 657.538 852.712 657.531H974.14C976.229 657.574 978.248 658.255 979.877 659.459C981.506 660.663 982.659 662.333 983.15 664.203C983.392 665.063 983.509 665.945 983.493 666.826V666.826Z"
       fill="#4D61FC"
       id="path128" />
    <path
       opacity="0.2"
       d="M983.493 666.826V670.194C983.501 671.922 983.033 673.62 982.137 675.132C981.311 676.587 980.079 677.805 978.56 678.665C977.04 679.525 975.302 679.991 973.517 680.013H852.712C852.517 680.005 852.322 679.962 852.143 679.891C851.964 679.812 851.8 679.704 851.668 679.575C851.535 679.439 851.426 679.282 851.364 679.11C851.293 678.945 851.262 678.758 851.27 678.579V678.078C851.262 677.898 851.293 677.712 851.364 677.547C851.426 677.375 851.535 677.218 851.668 677.089C851.8 676.952 851.964 676.845 852.143 676.766C852.322 676.695 852.517 676.651 852.712 676.644H926.333C926.73 676.171 927.081 675.655 927.369 675.118C928.087 673.778 928.453 672.309 928.445 670.818V666.518C928.445 665.751 928.344 664.977 928.149 664.232C927.822 663.028 927.245 661.903 926.442 660.907H852.712C852.517 660.9 852.322 660.856 852.143 660.785C851.964 660.706 851.8 660.599 851.668 660.47C851.535 660.333 851.426 660.176 851.364 660.004C851.293 659.839 851.262 659.653 851.27 659.473V658.965C851.262 658.785 851.293 658.599 851.364 658.434C851.426 658.262 851.535 658.105 851.668 657.976C851.8 657.839 851.964 657.732 852.143 657.653C852.322 657.581 852.517 657.538 852.712 657.531H974.14C976.229 657.574 978.248 658.255 979.877 659.459C981.506 660.663 982.659 662.333 983.15 664.203C983.392 665.063 983.509 665.945 983.493 666.826V666.826Z"
       fill="white"
       id="path130" />
    <path
       opacity="0.1"
       d="M983.135 664.282H928.157C927.829 663.078 927.252 661.953 926.45 660.957H852.72C852.525 660.95 852.33 660.907 852.151 660.835C851.971 660.756 851.808 660.649 851.675 660.512C851.543 660.383 851.434 660.226 851.371 660.054C851.301 659.889 851.27 659.703 851.278 659.524V659.015C851.27 658.836 851.301 658.649 851.371 658.484C851.434 658.312 851.543 658.155 851.675 658.019C851.808 657.89 851.971 657.782 852.151 657.703C852.33 657.632 852.525 657.589 852.72 657.581H974.14C976.229 657.632 978.248 658.312 979.877 659.524C981.506 660.735 982.651 662.412 983.135 664.282Z"
       fill="black"
       id="path132" />
    <path
       opacity="0.1"
       d="M854.73 668.811L863.67 669.184L854.73 669.413V668.811Z"
       fill="black"
       id="path134" />
    <path
       opacity="0.1"
       d="M854.73 672.323L876 672.703L854.73 672.925V672.323Z"
       fill="black"
       id="path136" />
    <path
       d="M908.306 697.391H846.033C843.437 697.391 840.951 696.445 839.119 694.761C837.288 693.077 836.259 690.791 836.259 688.405C836.259 686.169 837.225 684.019 838.948 682.435C840.67 680.851 843.009 679.962 845.44 679.962H908.306V697.391Z"
       fill="#4D61FC"
       id="path138" />
    <path
       opacity="0.2"
       d="M908.306 697.391H846.033C843.437 697.391 840.951 696.445 839.119 694.761C837.288 693.077 836.259 690.791 836.259 688.405C836.259 686.169 837.225 684.019 838.948 682.435C840.67 680.851 843.009 679.962 845.44 679.962H908.306V697.391Z"
       fill="black"
       id="path140" />
    <path
       d="M977.016 697.391H905.975C903.434 697.391 900.995 696.46 899.202 694.811C897.402 693.163 896.396 690.92 896.396 688.584C896.396 686.305 897.379 684.112 899.132 682.499C900.886 680.887 903.271 679.984 905.749 679.984H977.001V697.413L977.016 697.391Z"
       fill="#F4F4F4"
       id="path142" />
    <path
       d="M891.751 697.391H979.339C980.126 697.391 980.758 696.811 980.758 696.087C980.758 695.37 980.126 694.783 979.339 694.783H891.751C890.972 694.783 890.333 695.37 890.333 696.087C890.333 696.811 890.972 697.391 891.751 697.391V697.391Z"
       fill="#4D61FC"
       id="path144" />
    <path
       d="M891.751 682.571H979.339C980.126 682.571 980.758 681.983 980.758 681.267C980.758 680.543 980.126 679.962 979.339 679.962H891.751C890.972 679.962 890.333 680.543 890.333 681.267C890.333 681.983 890.972 682.571 891.751 682.571V682.571Z"
       fill="#4D61FC"
       id="path146" />
    <path
       opacity="0.2"
       d="M891.751 697.391H979.339C980.126 697.391 980.758 696.811 980.758 696.087C980.758 695.37 980.126 694.783 979.339 694.783H891.751C890.972 694.783 890.333 695.37 890.333 696.087C890.333 696.811 890.972 697.391 891.751 697.391V697.391Z"
       fill="black"
       id="path148" />
    <path
       opacity="0.2"
       d="M891.751 682.571H979.339C980.126 682.571 980.758 681.983 980.758 681.267C980.758 680.543 980.126 679.962 979.339 679.962H891.751C890.972 679.962 890.333 680.543 890.333 681.267C890.333 681.983 890.972 682.571 891.751 682.571V682.571Z"
       fill="black"
       id="path150" />
    <path
       opacity="0.1"
       d="M977.016 688.677L967.243 688.971L977.016 689.143V688.677Z"
       fill="black"
       id="path152" />
    <path
       opacity="0.1"
       d="M977.016 684.664L953.767 684.958L977.016 685.137V684.664Z"
       fill="black"
       id="path154" />
    <path
       d="M954.001 684.9C954.648 685.423 955.108 686.111 955.334 686.878C955.396 687.115 955.428 687.351 955.435 687.595C955.49 689.229 955.435 692.934 955.435 692.934L958.374 691.085L961.312 692.934V687.917C961.343 687.043 961.094 686.183 960.595 685.445C960.517 685.309 960.408 685.194 960.268 685.108C960.135 685.015 959.979 684.958 959.816 684.929L954.001 684.9Z"
       fill="#4D61FC"
       id="path156" />
    <path
       opacity="0.2"
       d="M954.001 684.9C954.648 685.423 955.108 686.111 955.334 686.878L961.226 686.95C961.226 686.95 960.992 685.194 959.777 684.9H954.001Z"
       fill="black"
       id="path158" />
    <path
       d="M838.527 632.054H896.896C900.543 632.054 904.05 633.388 906.63 635.759C909.21 638.132 910.66 641.356 910.66 644.71C910.66 648.143 909.179 651.433 906.537 653.862C903.894 656.291 900.317 657.653 896.584 657.653H838.527V632.054Z"
       fill="white"
       id="path160" />
    <path
       d="M910.722 641.987V647.498C910.745 648.566 910.488 649.619 909.974 650.573C909.467 651.526 908.711 652.35 907.776 652.981C906.926 653.525 905.913 653.819 904.876 653.826H836.649C836.228 653.862 835.846 654.056 835.573 654.349C835.3 654.65 835.168 655.03 835.199 655.417V656.062C835.168 656.449 835.3 656.829 835.573 657.13C835.846 657.424 836.228 657.617 836.649 657.653H954.508C957.89 657.653 960.875 655.811 962.684 652.981C963.884 651.074 964.507 648.903 964.492 646.696V642.345C964.5 640.812 964.18 639.293 963.556 637.866C962.044 634.427 958.833 632.054 955.116 632.054H836.649C836.228 632.093 835.846 632.281 835.573 632.578C835.3 632.876 835.168 633.259 835.199 633.646V634.29C835.168 634.677 835.3 635.061 835.573 635.358C835.846 635.652 836.228 635.845 836.649 635.881H905.079C905.89 635.896 906.684 636.082 907.409 636.433C908.126 636.777 908.75 637.264 909.233 637.866C910.207 639.056 910.73 640.504 910.722 641.987Z"
       fill="#4D61FC"
       id="path162" />
    <path
       opacity="0.1"
       d="M835.199 655.417V656.062C835.168 656.449 835.3 656.829 835.573 657.13C835.846 657.424 836.228 657.617 836.649 657.653H954.508C957.89 657.653 960.875 655.811 962.684 652.98H907.776C906.926 653.525 905.913 653.819 904.876 653.826H836.649C836.228 653.862 835.846 654.055 835.573 654.349C835.3 654.65 835.168 655.03 835.199 655.417Z"
       fill="black"
       id="path164" />
    <path
       opacity="0.1"
       d="M838.55 644.854L847.295 645.284L838.55 645.542V644.854Z"
       fill="black"
       id="path166" />
    <path
       opacity="0.1"
       d="M838.55 638.963L859.352 639.393L838.55 639.651V638.963Z"
       fill="black"
       id="path168" />
    <path
       d="M859.142 639.307C858.3 639.83 857.661 640.582 857.31 641.457C857.232 641.686 857.186 641.93 857.17 642.173C857.092 643.943 857.17 647.957 857.17 647.957L853.117 645.95L849.072 647.957V642.517C849.041 641.543 849.392 640.59 850.062 639.837C850.195 639.679 850.366 639.543 850.561 639.45C850.748 639.35 850.966 639.292 851.184 639.278L859.142 639.307Z"
       fill="#4D61FC"
       id="path170" />
    <path
       opacity="0.2"
       d="M859.142 639.307C858.3 639.83 857.661 640.583 857.31 641.457L849.189 641.543C849.189 641.543 849.509 639.629 851.184 639.314L859.142 639.307Z"
       fill="black"
       id="path172" />
    <path
       d="M138.18 8.0643C138.18 8.54206 139.324 12.2686 140.778 16.1862C142.441 20.6772 143.896 27.4614 144.416 33.6723C145.351 43.1319 145.766 44.5652 150.651 53.6427C156.678 64.8222 164.576 72.4664 171.019 73.613C175.591 74.3775 176.111 75.2374 173.409 77.4351C172.162 78.4862 169.979 81.3528 168.525 84.0282C166.238 87.9459 165.719 90.2391 165.615 96.7366C165.511 101.132 164.887 105.241 164.264 105.814C162.809 107.152 162.809 113.649 164.264 116.325C166.238 119.765 169.564 122.727 171.642 122.727C173.824 122.727 177.15 128.269 178.189 133.906C178.709 136.869 178.501 138.493 177.254 140.117C176.318 141.264 175.591 143.079 175.591 144.13C175.591 147.284 170.603 153.972 166.55 156.361C162.913 158.368 161.666 158.559 150.235 158.272C136.414 157.986 133.816 158.559 127.061 163.528C122.385 166.967 117.085 175.949 111.681 189.327C110.226 193.053 105.134 202.035 100.562 209.393C95.8857 216.655 89.5466 227.739 86.4291 233.949C81.7528 243.409 80.8175 246.276 80.8175 250.671C80.8175 257.837 90.5858 287.745 98.7954 306.091C104.823 319.564 106.174 322.813 109.291 331.986C111.058 336.859 114.279 338.961 118.748 338.292C121.034 337.815 121.554 338.101 121.554 339.726C121.554 342.497 127.996 344.79 133.608 344.025C136.933 343.643 138.18 343.834 138.596 344.885C139.427 347.083 141.194 346.605 142.545 343.93C143.896 341.159 146.91 340.586 146.078 343.165C144.104 349.663 143.48 353.007 144 354.345C144.831 356.352 140.259 373.169 139.012 372.5C138.596 372.213 138.18 370.971 138.18 369.825C138.18 365.047 131.218 364.091 128.724 368.582C127.996 369.729 126.646 371.258 125.606 371.927C123.216 373.455 122.385 377.851 122.073 389.317C121.969 394.286 121.45 406.421 121.034 416.263C120.41 430.213 120.514 434.513 121.554 435.66C124.463 438.909 128.516 436.615 130.802 430.405C131.738 427.92 134.855 404.892 135.063 399.541C135.063 399.159 135.375 398.872 135.894 398.872C136.31 398.872 136.518 400.879 136.31 403.363C136.206 405.943 135.686 419.129 135.167 432.793C133.608 470.536 129.555 488.787 119.683 502.355C105.03 522.326 102.536 530.639 98.6915 572.299C96.1974 599.627 95.2622 605.552 91.4172 618.356C85.4938 637.848 84.039 647.594 85.286 659.921C85.8056 665.367 86.6369 675.209 87.1565 681.898C87.78 690.211 88.5075 694.797 89.6506 696.326C92.4564 700.244 103.056 701.677 116.877 700.053L122.073 699.384L122.801 695.084C124.255 686.866 123.736 681.133 120.514 667.374C116.15 648.932 116.046 638.23 119.891 620.553C124.671 598.672 127.477 589.785 134.959 572.682C144.831 549.94 154.6 519.841 153.249 516.497C152.833 515.637 155.015 510.573 158.341 504.457C161.666 498.342 166.862 485.92 170.707 474.836C174.448 464.326 180.891 446.171 185.048 434.418C189.1 422.76 194.089 410.243 195.959 406.803C197.933 403.268 199.492 399.255 199.492 397.821C199.492 394.859 205.208 376.8 207.39 372.882C209.261 369.633 216.951 364.856 218.405 366.194C219.029 366.767 218.925 369.538 218.094 373.551C216.639 381.386 217.782 394.573 222.354 420.372C226.199 442.349 227.238 450.853 228.07 466.237C228.382 473.021 229.421 484.2 230.356 490.889C231.707 500.158 231.811 503.311 230.876 503.884C228.797 505.031 227.238 523.472 227.862 538.378C228.174 546.023 229.421 557.202 230.668 563.222C233.785 578.606 234.305 597.238 232.434 618.642C231.499 628.388 230.772 640.428 230.668 645.397C230.668 650.365 229.836 658.296 229.005 662.883C226.823 674.349 227.55 685.242 230.46 687.44C233.162 689.542 251.555 690.975 255.92 689.446C260.7 687.726 261.22 684.955 260.7 664.985C260.492 654.952 260.285 635.459 260.388 621.509C260.388 594.181 260.077 596.474 268.598 561.789C271.3 550.514 272.755 529.588 271.508 517.93C270.988 512.293 270.053 507.324 269.429 507.037C267.351 505.7 266.935 501.973 267.039 482.863C267.039 467.383 267.559 460.599 269.118 452.19C270.261 446.266 272.859 432.411 274.937 421.327C278.158 403.554 279.302 399.923 281.692 399.828C283.147 399.828 283.562 409.001 282.419 415.116C281.692 418.747 281.484 421.996 281.9 422.378C282.211 422.665 284.601 423.238 287.095 423.429L291.564 423.907L293.331 414.925C294.266 409.956 295.097 404.605 295.097 403.077C295.097 401.357 296.448 398.586 298.319 396.101C302.371 391.133 304.865 380.622 303.722 373.551C303.307 370.876 302.891 368.105 302.891 367.34C302.891 366.576 302.475 364.378 301.956 362.563C298.942 350.045 297.487 345.363 293.434 333.706C290.94 326.539 286.68 313.353 284.082 304.562C281.484 295.772 277.015 283.445 274.21 277.235C266.727 260.8 266.104 257.933 257.687 201.08C256.44 192.384 251.659 182.925 246.983 179.676C245.112 178.338 239.085 175.663 233.577 173.561C216.639 167.254 211.547 162.094 212.17 151.392C212.274 148.335 212.17 145.468 211.755 145.182C210.404 143.939 214.145 136.391 216.743 135.149C220.692 133.142 222.874 128.842 225.888 117.28C227.966 109.254 228.485 105.336 227.966 101.036C227.238 93.9656 224.641 83.8371 222.77 80.4928C220.899 77.244 220.899 75.9063 222.666 75.9063C223.497 75.9063 225.991 74.6641 228.382 73.1353C231.707 70.842 233.785 68.071 238.358 59.4713C243.45 49.9161 244.281 47.4318 245.736 37.8766C246.671 31.8568 247.191 25.4548 246.775 23.4482C246.463 21.5371 246.671 18.6706 247.295 17.1418C248.853 13.5108 247.191 12.0775 243.658 13.7974C238.669 16.2818 224.744 28.9902 219.964 35.4878C215.288 41.7942 210.3 52.7827 207.806 62.4334L206.559 67.1155L198.141 67.4977C193.465 67.7844 188.893 68.2621 188.061 68.6443C186.71 69.1221 186.191 68.1666 185.255 63.9623C183.593 56.7003 176.318 41.412 171.226 34.5322C166.238 27.8436 154.288 15.9951 147.221 10.7398C142.441 7.29989 138.18 5.96216 138.18 8.0643ZM189.1 152.252C189.1 153.112 188.373 154.737 187.542 155.788C186.087 157.603 186.087 157.603 185.983 155.692C185.983 152.635 187.23 149.481 188.165 150.055C188.685 150.341 189.1 151.297 189.1 152.252ZM143.169 179.58C143.584 183.116 140.986 186.747 139.22 185.218C137.453 183.594 129.971 191.524 126.23 198.882C124.567 202.226 122.697 204.902 121.865 204.902C121.138 204.902 120.826 205.475 121.034 206.048C121.865 207.959 109.811 229.936 105.03 235.478C102.64 238.154 100.77 240.829 100.77 241.307C100.77 242.262 96.9249 245.989 95.9896 245.989C95.6778 245.989 95.5739 245.416 95.8857 244.651C96.1974 243.887 96.0935 243.122 95.5739 242.931C94.0151 242.454 102.329 227.739 107.213 222.388C109.707 219.617 112.824 214.552 114.279 211.113C115.734 207.482 117.397 204.902 118.228 204.902C119.371 204.902 119.475 204.615 118.644 203.659C117.189 202.131 122.281 193.531 125.918 191.333C127.373 190.473 129.036 188.18 129.659 186.173C130.283 184.071 131.841 181.109 132.881 179.389C134.751 176.714 135.479 176.332 138.908 176.523C142.441 176.714 142.857 177 143.169 179.58ZM146.182 181.205C145.87 181.969 145.559 181.682 145.559 180.631C145.455 179.58 145.766 179.007 146.078 179.389C146.39 179.676 146.494 180.536 146.182 181.205ZM148.572 184.74C147.429 186.747 145.455 188.276 145.455 187.129C145.455 186.365 148.572 182.925 149.3 182.925C149.508 182.925 149.196 183.785 148.572 184.74ZM246.359 204.233C245.32 205.093 245.216 204.997 245.84 203.659C246.152 202.704 246.775 202.226 247.087 202.513C247.399 202.799 247.087 203.564 246.359 204.233ZM135.063 209.201C135.063 211.686 150.131 256.882 152.521 261.468C157.301 270.737 160.107 280.101 160.731 288.51C161.25 295.389 160.939 297.109 158.029 304.849C156.262 309.627 154.807 314.213 154.807 314.882C154.807 315.646 152.313 317.462 149.3 318.895C144.727 321.188 142.545 321.571 134.647 321.762L125.398 321.953L122.489 313.353C120.826 308.576 117.812 296.823 115.734 287.172C113.76 277.521 111.162 267.01 110.019 263.762C106.693 253.729 107.005 252.104 116.254 238.058C120.722 231.083 126.438 221.719 128.932 217.132C132.777 210.157 135.063 207.195 135.063 209.201ZM249.165 211.113C248.853 211.399 248.23 210.921 247.918 209.966C247.295 208.628 247.399 208.533 248.438 209.393C249.165 210.061 249.477 210.826 249.165 211.113ZM174.344 212.737C175.071 213.406 175.591 215.126 175.591 216.559C175.591 218.852 175.175 219.234 172.577 219.234C168.525 219.234 166.654 217.037 168.109 213.979C169.356 211.399 172.266 210.826 174.344 212.737ZM229.005 214.552C232.123 215.89 233.058 217.801 231.707 220.19C230.356 222.483 227.238 223.343 223.082 222.579C218.509 221.623 217.886 221.145 219.237 219.712C219.964 218.948 220.172 217.992 219.86 217.419C218.925 216.177 222.043 213.501 224.433 213.501C225.576 213.501 227.55 213.979 229.005 214.552ZM213.417 226.401C216.223 228.79 218.301 230.892 218.094 231.178C217.782 231.37 215.08 229.936 212.066 227.834C209.053 225.732 206.143 224.012 205.52 224.012C205 224.012 204.896 223.534 205.208 223.057C206.351 221.337 208.325 222.101 213.417 226.401ZM222.874 225.923C223.705 227.165 222.354 227.165 220.276 225.923C218.925 225.159 218.925 224.968 220.484 224.968C221.419 224.968 222.562 225.35 222.874 225.923ZM250.828 228.025C251.036 228.694 251.659 232.038 252.283 235.478C252.906 238.918 254.777 247.422 256.44 254.398C259.869 268.635 259.973 271.119 257.479 271.597C256.128 271.788 255.608 271.024 255.089 268.253C254.777 266.246 253.01 259.271 251.244 252.678C245.736 232.134 245.736 232.038 247.295 229.267C248.75 226.687 250.308 226.21 250.828 228.025ZM210.404 231.274C211.859 232.134 213.002 233.185 213.002 233.663C213.002 234.714 207.182 232.134 206.247 230.701C205.312 229.267 207.598 229.554 210.404 231.274ZM204.688 234.523C204.688 237.198 205.104 238.345 206.247 238.345C209.988 238.345 210.819 244.46 208.325 255.066C206.767 262.137 207.182 277.521 209.053 277.521C209.572 277.521 209.676 277.903 209.365 278.477C209.053 278.954 209.261 279.432 209.884 279.432C210.508 279.432 210.819 279.814 210.404 280.292C210.092 280.77 210.3 281.439 210.819 281.726C211.339 282.012 213.209 284.688 214.976 287.554C218.717 293.574 219.341 301.409 216.639 306.187C213.417 312.016 211.859 309.34 208.741 293.001C204.584 270.45 201.467 243.218 202.298 236.052C203.025 229.936 204.688 228.885 204.688 234.523ZM189.724 233.089C189.412 233.854 189.62 234.523 190.244 234.523C190.867 234.523 191.179 235.192 190.763 235.956C190.451 236.912 190.867 237.389 192.114 237.389C193.153 237.389 194.608 238.058 195.336 238.823C196.375 239.969 196.167 240.829 194.4 243.505C193.153 245.32 192.634 246.945 193.153 247.136C193.673 247.231 194.4 249.716 194.608 252.487C194.92 255.258 195.855 258.506 196.79 259.749C198.245 261.946 200.324 273.317 199.7 276.566C198.661 282.585 199.388 285.261 203.545 290.994C208.014 297.109 211.443 305.996 210.612 309.053C210.3 310.104 210.612 310.678 211.339 310.487C217.678 308.576 227.031 306.187 228.174 306.187C230.044 306.187 233.266 312.207 232.434 314.118C232.123 314.978 230.252 316.029 228.382 316.602C226.511 317.08 220.38 319.086 214.768 320.902C209.157 322.813 203.025 324.342 201.155 324.342C198.141 324.342 197.726 324.055 198.141 322.431C198.557 321.188 197.933 319.564 196.479 318.226L194.192 316.029L201.259 313.544C205.104 312.207 207.39 311.06 206.143 311.06C203.337 310.964 196.79 305.518 195.439 302.078C194.816 300.549 194.296 295.581 194.4 290.899C194.504 284.497 193.985 281.057 192.218 276.661C190.971 273.412 190.244 270.45 190.555 270.068C191.387 268.73 188.893 262.233 187.749 262.902C187.126 263.284 187.022 262.997 187.542 262.233C187.957 261.564 187.853 260.8 187.334 260.417C185.359 259.175 181.618 252.487 179.228 245.798C176.318 237.772 176.526 237.294 184.424 233.949C190.555 231.274 190.555 231.274 189.724 233.089ZM96.9249 251.627C96.717 252.582 97.6523 255.926 99.1071 259.08C100.458 262.137 102.433 268.348 103.368 272.839C104.303 277.235 106.381 287.076 108.044 294.721C112.097 313.449 112.72 318.609 111.266 318.609C110.642 318.609 109.603 317.462 109.083 316.124C107.005 311.156 101.705 290.516 99.7306 279.623C98.5875 273.508 96.9249 266.246 96.0935 263.475C95.2622 260.8 94.5347 256.978 94.5347 254.875C94.5347 252.869 94.1191 250.576 93.4955 249.811C92.1446 247.9 94.7426 246.562 96.1974 248.473C96.9249 249.238 97.2366 250.671 96.9249 251.627ZM243.969 272.744C243.969 273.508 243.346 272.839 242.618 271.31C241.787 269.686 241.164 267.584 241.164 266.533C241.164 265.291 241.683 265.768 242.618 267.966C243.346 269.781 243.969 271.979 243.969 272.744ZM260.181 278.095C261.116 280.388 260.908 281.343 259.557 281.343C257.167 281.343 255.296 279.623 255.92 278.095C256.751 276.088 259.349 276.088 260.181 278.095ZM258.206 282.299C258.518 282.872 258.102 282.968 257.271 282.681C255.4 282.012 255.089 281.343 256.543 281.343C257.167 281.343 257.894 281.726 258.206 282.299ZM267.247 290.134C268.806 291.758 271.404 295.485 273.17 298.447C276.392 303.989 286.784 327.399 286.784 329.024C286.784 332.559 283.874 329.31 277.327 318.322C273.17 311.442 268.078 303.32 265.896 300.454C261.22 293.956 258.726 289.561 258.726 287.554C258.726 285.165 264.026 286.79 267.247 290.134ZM197.206 321.571C196.998 322.144 196.375 322.526 195.855 322.526C195.336 322.526 194.712 322.144 194.504 321.571C194.296 320.997 194.92 320.52 195.855 320.52C196.79 320.52 197.414 320.997 197.206 321.571ZM248.334 328.164C248.334 331.221 238.358 344.408 236.175 344.408C233.785 344.408 234.928 342.114 241.787 333.133C246.048 327.59 248.334 325.871 248.334 328.164ZM213.002 332.559C213.002 334.566 212.586 335.712 211.962 335.33C211.339 334.948 211.131 334.375 211.443 333.897C211.755 333.419 211.547 332.75 210.923 332.464C210.092 331.986 210.196 331.413 211.027 330.457C212.794 328.546 213.002 328.737 213.002 332.559ZM187.957 332.464C188.997 333.324 189.204 334.184 188.581 334.757C187.438 335.712 171.434 336.763 171.434 335.904C171.434 334.088 174.968 331.126 177.462 330.744C181.618 330.075 186.295 330.839 187.957 332.464ZM257.687 335.426C257.687 336.668 256.751 338.101 255.608 338.675C254.569 339.248 250.516 341.828 246.775 344.503C242.93 347.179 239.709 349.185 239.397 348.994C239.085 348.612 246.671 338.292 251.451 332.655C253.634 330.075 253.842 330.075 255.712 331.604C256.855 332.464 257.687 334.184 257.687 335.426ZM290.317 336.859C290.525 338.101 290.94 340.681 291.356 342.497L292.084 345.841L290.317 342.974C289.278 341.35 288.446 338.77 288.342 337.146C288.239 335.521 287.719 333.515 287.303 332.846C286.784 331.986 287.095 332.081 288.239 333.037C289.278 333.897 290.213 335.617 290.317 336.859ZM260.285 342.592C261.22 346.51 259.765 347.752 252.283 349.472C245.632 351.096 244.177 350.332 246.567 346.892C248.438 344.312 257.583 338.483 258.83 339.152C259.245 339.439 259.973 340.968 260.285 342.592ZM146.494 348.707C145.351 351.861 144.727 353.103 145.039 351.574C146.078 346.414 147.845 341.063 148.157 342.019C148.364 342.497 147.637 345.554 146.494 348.707ZM184.736 343.548C191.387 344.981 191.906 346.223 185.463 345.363C181.618 344.79 180.787 344.981 181.203 346.032C181.93 347.656 181.826 347.656 175.903 345.268C171.538 343.548 171.226 343.165 172.993 342.401C174.136 342.019 176.007 341.828 177.15 342.019C178.293 342.306 181.722 342.974 184.736 343.548ZM281.9 348.994C282.835 351.479 283.666 356.161 283.874 359.409C284.29 364.474 284.082 365.334 282.419 365.716C280.756 366.098 280.549 365.525 280.445 361.32C280.445 358.549 280.133 353.485 279.717 349.95C278.782 342.688 279.613 342.306 281.9 348.994ZM258.726 352.625C258.726 353.39 247.087 357.976 246.567 357.403C246.256 357.212 248.334 355.874 251.14 354.536C256.024 352.243 258.726 351.479 258.726 352.625ZM260.388 372.022C260.077 380.909 259.037 391.801 258.206 396.197C257.375 400.592 256.232 406.994 255.608 410.434C255.089 413.874 254.153 417.792 253.53 419.034C252.595 421.136 252.491 421.136 252.595 417.983C252.698 416.167 252.698 414.447 252.595 414.161C252.491 413.874 252.283 404.605 252.075 393.617C251.763 372.309 250.308 362.849 247.399 362.371C244.801 361.894 254.569 355.969 258.102 355.874H261.116L260.388 372.022ZM134.439 379.666C134.128 382.342 133.4 384.348 132.985 384.062C132.569 383.775 132.569 381.769 133.088 379.571C133.504 377.278 133.92 375.08 134.024 374.602C134.024 374.124 134.232 373.933 134.543 374.22C134.959 374.507 134.855 376.991 134.439 379.666ZM170.395 382.82C170.395 386.737 169.668 387.502 166.55 386.833C164.68 386.355 164.368 385.686 164.887 382.82C165.095 380.813 165.927 378.329 166.55 377.086L167.693 374.889L169.044 377.086C169.772 378.329 170.291 380.909 170.395 382.82ZM283.666 383.106C283.666 383.775 282.939 384.826 282.107 385.495C280.756 386.546 280.549 386.164 280.549 383.106C280.549 380.049 280.756 379.666 282.107 380.717C282.939 381.386 283.666 382.437 283.666 383.106ZM131.945 385.686C131.945 385.877 130.802 394.381 129.347 404.605C127.893 414.83 126.749 424.671 126.749 426.296C126.749 428.016 126.334 429.449 125.71 429.449C124.151 429.449 124.463 424.767 127.269 404.797C128.724 394.764 129.867 386.259 129.867 385.973C129.867 385.686 130.387 385.495 130.906 385.495C131.53 385.495 131.945 385.591 131.945 385.686ZM131.53 409.383C130.075 420.085 128.62 428.971 128.308 429.258C127.477 430.022 127.685 428.111 130.387 407.09C133.4 383.966 133.192 385.4 133.712 387.979C133.92 389.126 132.985 398.777 131.53 409.383ZM169.044 394.19C169.46 402.79 167.381 416.741 162.809 437.093C161.978 440.533 160.835 446.553 160.107 450.47C159.38 454.388 157.405 463.657 155.743 471.014C153.976 478.372 152.521 485.156 152.417 486.016C152.209 488.118 150.027 488.309 149.196 486.303C148.261 483.914 156.262 439.96 157.717 439.96C158.133 439.96 158.445 438.335 158.445 436.329C158.652 422.665 161.042 401.452 163.225 393.617C165.303 386.451 168.732 386.737 169.044 394.19ZM283.666 389.699C283.666 389.89 282.939 390.273 282.107 390.655C281.276 390.942 280.549 390.75 280.549 390.273C280.549 389.699 281.276 389.317 282.107 389.317C282.939 389.317 283.666 389.508 283.666 389.699ZM282.627 395.432C282.627 395.624 281.9 396.292 281.068 396.961C279.821 397.917 279.509 397.917 279.509 396.579C279.509 395.719 280.237 395.05 281.068 395.05C281.9 395.05 282.627 395.241 282.627 395.432ZM252.491 472.925C252.491 475.601 250.932 476.174 249.997 473.785C248.957 471.396 249.269 470.536 250.932 470.536C251.867 470.536 252.491 471.396 252.491 472.925ZM252.491 490.125C252.491 490.889 251.763 491.558 250.932 491.558C250.101 491.558 249.373 490.889 249.373 490.125C249.373 489.36 250.101 488.691 250.932 488.691C251.763 488.691 252.491 489.36 252.491 490.125ZM146.494 497.673C146.494 498.247 146.078 499.298 145.559 499.966C144.416 501.686 141.818 498.82 142.753 496.813C143.376 495.284 146.494 495.858 146.494 497.673ZM254.049 499.202C253.738 499.68 253.01 500.158 252.387 500.158C251.867 500.158 251.451 499.68 251.451 499.202C251.451 498.629 252.179 498.247 253.114 498.247C253.945 498.247 254.361 498.629 254.049 499.202ZM142.649 506.464C142.961 506.751 142.753 507.802 142.025 508.853C140.674 510.859 137.973 509.522 138.908 507.228C139.427 505.891 141.506 505.413 142.649 506.464ZM252.387 511.815C252.179 515.255 250.932 518.886 250.204 517.835C249.893 517.261 249.165 515.255 248.542 513.248C247.503 509.904 247.606 509.713 249.997 509.713C251.971 509.713 252.491 510.191 252.387 511.815ZM138.284 514.49C139.324 515.064 140.259 516.306 140.259 517.261C140.259 518.217 137.765 524.81 134.647 531.785C122.385 559.687 119.891 568.573 115.318 600.01C113.24 614.916 112.409 616.731 107.732 616.731C106.07 616.731 105.862 616.253 106.381 613.578C106.693 611.954 107.732 605.743 108.564 600.01C109.395 594.181 110.642 587.11 111.162 584.243C111.681 581.377 112.617 573.542 113.24 566.948C113.864 560.355 115.422 551.278 116.773 546.883C119.579 537.423 127.061 518.981 129.347 515.733C131.114 513.344 134.855 512.866 138.284 514.49ZM246.775 602.016C246.152 610.234 245.32 612.431 243.658 610.138C243.346 609.66 243.865 605.074 244.905 599.914C246.983 588.83 247.814 589.69 246.775 602.016ZM245.216 615.202C245.216 615.967 245.528 617.209 245.84 618.069C246.256 619.024 245.944 619.598 244.905 619.598C243.346 619.598 242.099 617.687 242.099 615.202C242.099 614.438 242.826 613.865 243.658 613.865C244.489 613.865 245.216 614.438 245.216 615.202ZM110.85 619.215C110.538 619.502 109.603 619.598 108.875 619.311C108.044 619.024 108.356 618.738 109.499 618.738C110.642 618.642 111.266 618.929 110.85 619.215ZM245.32 633.071C245.736 639.568 246.567 647.69 247.191 651.13C249.061 661.354 249.061 661.354 243.138 662.501C240.228 663.074 237.111 663.552 236.383 663.552C233.993 663.552 234.513 658.01 237.942 645.683C239.709 639.568 241.06 632.211 241.06 629.153C241.06 622.846 241.787 620.267 243.554 620.84C244.281 621.031 244.905 625.617 245.32 633.071ZM110.642 622.942C110.642 623.42 109.083 623.993 107.317 624.184C104.719 624.471 103.887 624.089 103.887 622.942C103.887 621.795 104.719 621.413 107.317 621.7C109.083 621.891 110.642 622.369 110.642 622.942ZM108.772 626.86C108.46 627.146 107.525 627.242 106.797 626.955C105.966 626.669 106.278 626.382 107.421 626.382C108.564 626.286 109.187 626.573 108.772 626.86ZM108.772 643.295C108.875 655.143 109.603 661.545 111.785 671.1C112.409 674.062 112.305 674.349 110.538 673.68C106.589 672.247 101.393 671.769 102.225 672.916C103.264 674.445 98.4836 674.445 96.4053 672.82C94.9504 671.769 94.9504 670.527 96.1974 660.685C96.9249 654.665 98.068 647.786 98.5875 645.397C99.2111 643.008 99.9385 639.281 100.25 636.988C101.082 632.402 103.056 630.108 106.278 630.108C108.46 630.108 108.564 630.395 108.772 643.295ZM241.787 666.992C241.475 667.278 240.54 667.374 239.813 667.087C238.981 666.8 239.293 666.514 240.436 666.514C241.579 666.418 242.203 666.705 241.787 666.992ZM98.6915 675.018C99.9385 675.782 99.6267 675.973 97.4444 675.973C95.7817 675.973 94.5347 675.496 94.5347 675.018C94.5347 673.776 96.6131 673.776 98.6915 675.018ZM242.722 678.936C243.034 679.509 242.826 680.464 242.307 680.942C240.956 682.184 237.63 680.178 238.566 678.744C239.293 677.598 241.787 677.693 242.722 678.936ZM242.099 686.962C242.099 687.726 241.164 688.395 240.02 688.395C238.877 688.395 237.942 687.726 237.942 686.962C237.942 686.198 238.877 685.529 240.02 685.529C241.164 685.529 242.099 686.198 242.099 686.962ZM113.76 690.306C113.76 692.122 110.434 692.695 108.46 691.166C107.213 690.211 107.213 689.828 108.252 689.16C110.33 688.013 113.76 688.682 113.76 690.306ZM114.071 697.664C113.864 698.81 112.824 699.384 111.162 699.384C109.499 699.384 108.46 698.81 108.252 697.664C107.94 696.422 108.564 696.039 111.162 696.039C113.76 696.039 114.383 696.422 114.071 697.664Z"
       fill="black"
       id="path174" />
    <path
       d="M217.678 312.875C217.366 313.449 217.782 313.544 218.613 313.258C220.484 312.589 220.796 311.92 219.341 311.92C218.717 311.92 217.99 312.302 217.678 312.875Z"
       fill="black"
       id="path176" />
    <path
       d="M218.198 316.124C218.925 316.793 219.549 316.793 220.276 316.124C220.899 315.551 220.588 315.169 219.237 315.169C217.886 315.169 217.574 315.551 218.198 316.124Z"
       fill="black"
       id="path178" />
    <path
       d="M206.351 316.506C206.143 316.889 206.767 317.271 207.806 317.271C208.845 317.271 209.468 316.889 209.261 316.506C208.949 316.124 208.325 315.742 207.806 315.742C207.286 315.742 206.663 316.124 206.351 316.506Z"
       fill="black"
       id="path180" />
    <path
       d="M415.206 418.052L420.769 418.115C421.071 420.761 422.055 422.958 423.722 424.708C425.347 426.458 427.456 427.333 430.05 427.333C431.935 427.333 433.493 426.776 434.722 425.662C435.961 424.599 436.581 423.151 436.581 421.318C436.581 419.141 434.81 417.068 431.269 415.099C425.164 411.693 421.857 409.797 421.347 409.412C417.763 406.505 415.972 402.854 415.972 398.458C415.972 394.156 417.618 390.828 420.909 388.474C423.763 386.391 427.43 385.349 431.909 385.349C432.982 385.349 435.883 385.708 440.612 386.427C441.164 386.521 441.654 386.568 442.081 386.568C443.362 386.568 444.388 386.458 445.159 386.24C445.378 386.156 445.998 385.922 447.019 385.537V400.896H441.581C441.279 398.292 440.529 396.203 439.331 394.63C437.925 392.703 436.008 391.74 433.581 391.74C431.998 391.74 430.675 392.167 429.612 393.021C428.539 393.917 428.003 395.136 428.003 396.677C428.003 398.636 429.815 400.531 433.44 402.365C439.253 405.313 442.67 407.193 443.69 408.005C447.357 410.985 449.19 414.781 449.19 419.396C449.19 424.219 447.55 427.906 444.269 430.458C441.237 432.854 437.269 434.052 432.362 434.052C429.925 434.052 427.321 433.776 424.55 433.224L422.628 432.833C421.993 432.708 421.352 432.646 420.706 432.646C419.946 432.646 418.987 432.771 417.831 433.021L415.206 433.599V418.052ZM452.378 398.849L454.753 398.599C458.118 398.214 460.378 396.932 461.534 394.755C462.222 393.474 462.779 390.807 463.206 386.755L469.597 386.818C469.597 388.099 469.555 390.021 469.472 392.583C469.347 395.136 469.284 397.052 469.284 398.333H477.019V404.865L469.222 404.802L469.081 423.802C469.081 425.125 469.342 426 469.862 426.427C470.373 426.896 471.289 427.13 472.612 427.13H476.894V432.521C472.633 433.323 469.326 433.724 466.972 433.724C462.878 433.724 460.232 432.787 459.034 430.912C458.138 429.505 457.69 426.625 457.69 422.271V404.865H452.378V398.849ZM478.206 398.662L495.612 397.568C495.612 398.724 495.545 400.432 495.409 402.693C495.284 404.953 495.222 406.636 495.222 407.74L495.159 418.943L495.284 419.708C495.284 421.542 495.414 422.802 495.675 423.49C496.144 424.771 497.144 425.412 498.675 425.412C500.56 425.412 502.034 424.599 503.097 422.974C504.034 421.568 504.503 419.865 504.503 417.865L504.565 409.662C504.565 407.703 504.269 406.365 503.675 405.646C503.081 404.917 501.842 404.422 499.956 404.162L499.519 404.099L498.55 404.224V398.724L516.862 397.755C516.862 398.912 516.795 400.641 516.659 402.943C516.493 405.245 516.409 406.974 516.409 408.13V421.896C516.409 424.115 516.753 425.583 517.44 426.302C518.118 427.073 519.545 427.458 521.722 427.458V432.896H506.487C506.06 430.761 505.847 429.5 505.847 429.115C502.815 432.323 499.081 433.927 494.644 433.927C490.81 433.927 487.93 432.537 486.003 429.755C484.305 427.328 483.456 424.13 483.456 420.162V407.615C483.456 406.552 483.305 405.787 483.003 405.318C482.659 404.891 481.977 404.547 480.956 404.287L478.206 403.912V398.662ZM548.909 399.615C548.784 399.021 548.701 398.214 548.659 397.193L548.597 395.521V393.927C548.597 393.406 548.618 392.891 548.659 392.38L548.597 389.896C548.555 387.844 548.258 386.5 547.706 385.865C547.102 385.219 545.8 384.896 543.8 384.896H541.878V379.333L560.815 377.99C560.565 380.719 560.44 382.49 560.44 383.302L560.565 421.255C560.565 423.807 560.821 425.406 561.331 426.052C562.019 426.906 563.576 427.333 566.003 427.333V432.833H550.456L549.878 429.318C547.315 432.432 543.946 433.99 539.769 433.99C535.196 433.99 531.503 432.151 528.69 428.474C526.086 425.11 524.784 421.078 524.784 416.38C524.784 411.005 526.149 406.568 528.878 403.068C531.868 399.193 535.967 397.255 541.175 397.255C544.112 397.255 546.69 398.042 548.909 399.615ZM548.909 415.24C548.909 407.729 547.013 403.974 543.222 403.974C539.42 403.974 537.519 407.62 537.519 414.912C537.519 422.214 539.399 425.865 543.159 425.865C546.993 425.865 548.909 422.323 548.909 415.24ZM567.44 427.396L568.722 427.458C568.888 427.458 569.039 427.458 569.175 427.458C570.456 427.458 571.373 427.136 571.925 426.49C572.352 426.021 572.607 424.891 572.69 423.099L572.815 420.802L572.878 409.724L572.753 409.021C572.586 407.063 572.352 405.828 572.05 405.318C571.581 404.505 570.493 404.037 568.784 403.912L568.534 403.849L567.565 403.974V398.458L584.472 397.115L584.269 404.99V420.99C584.269 422.917 584.378 424.219 584.597 424.896C585.107 426.563 586.769 427.396 589.581 427.396V432.833H567.44V427.396ZM578.706 381.693C580.581 381.693 582.138 382.354 583.378 383.677C584.576 385.042 585.175 386.667 585.175 388.552C585.175 390.469 584.555 392.068 583.315 393.349C582.076 394.672 580.498 395.333 578.581 395.333C576.654 395.333 575.097 394.651 573.909 393.287C572.67 391.964 572.05 390.339 572.05 388.412C572.05 386.537 572.69 384.938 573.972 383.615C575.253 382.333 576.831 381.693 578.706 381.693ZM610.784 397.693C616.243 397.693 620.633 399.36 623.956 402.693C627.289 406.016 628.956 410.412 628.956 415.88C628.956 421.297 627.289 425.667 623.956 428.99C620.592 432.323 616.18 433.99 610.722 433.99C606.107 433.99 602.284 432.813 599.253 430.458C596.097 428.073 594.05 424.662 593.112 420.224C592.769 418.599 592.597 417.151 592.597 415.88C592.597 414.557 592.769 413.083 593.112 411.458C594.05 407.021 596.076 403.61 599.19 401.224C602.305 398.87 606.17 397.693 610.784 397.693ZM610.784 427.13C614.368 427.13 616.159 423.354 616.159 415.802C616.159 408.302 614.368 404.552 610.784 404.552C607.159 404.552 605.347 408.349 605.347 415.943C605.347 423.401 607.159 427.13 610.784 427.13ZM633.034 417.724L638.347 417.662C638.555 418.985 638.727 419.969 638.862 420.615C639.112 421.761 639.451 422.677 639.878 423.365C641.326 425.833 643.524 427.068 646.472 427.068C649.034 427.068 650.315 426.068 650.315 424.068C650.315 422.828 648.862 421.547 645.956 420.224C641.644 418.266 638.935 416.88 637.831 416.068C634.883 413.932 633.409 411.328 633.409 408.255C633.409 404.672 634.779 401.901 637.519 399.943C639.904 398.193 642.951 397.318 646.659 397.318C647.597 397.318 648.857 397.443 650.44 397.693C652.232 398.037 653.467 398.229 654.144 398.271L655.878 398.396C655.92 398.396 655.961 398.396 656.003 398.396C656.857 398.396 658.414 398.12 660.675 397.568V410.818H655.362C654.81 408.474 654.149 406.807 653.378 405.818C652.274 404.453 650.654 403.771 648.519 403.771C647.706 403.771 646.977 404.011 646.331 404.49C645.696 404.958 645.378 405.594 645.378 406.396C645.378 407.292 645.977 408.063 647.175 408.708C647.602 408.917 648.607 409.344 650.19 409.99C658.295 413.188 662.347 417.261 662.347 422.208C662.347 425.969 660.935 428.87 658.112 430.912C655.602 432.745 652.404 433.662 648.519 433.662C647.414 433.662 646.008 433.516 644.3 433.224C641.654 432.755 640.243 432.521 640.065 432.521L638.144 432.255C636.185 432.255 634.482 432.813 633.034 433.927V417.724Z"
       fill="#303030"
       id="path182" />
    <path
       d="M381.565 268.322C384.835 269.236 387.454 270.964 389.423 273.507C391.345 276.05 392.306 279.027 392.306 282.437C392.306 286.902 390.648 290.453 387.331 293.089C384.261 295.585 380.446 296.833 375.888 296.833H344.212V290.787H345.653C347.903 290.787 349.392 289.972 350.118 288.343C350.599 287.289 350.839 285.46 350.839 282.859V257.3C350.839 254.851 350.382 253.222 349.468 252.414C348.554 251.64 346.849 251.253 344.353 251.253V244.996H375.378C379.222 244.996 382.439 246.121 385.028 248.371C387.817 250.726 389.212 253.802 389.212 257.599C389.212 262.544 386.663 266.119 381.565 268.322ZM366.747 265.808C372.173 265.808 374.886 263.529 374.886 258.97C374.886 254.447 372.173 252.185 366.747 252.185H364.796V265.808H366.747ZM369.331 290.207C374.804 290.207 377.54 287.136 377.54 280.996C377.54 278.019 376.532 275.904 374.517 274.65C372.935 273.701 370.532 273.226 367.31 273.226H364.796V283.087C364.796 285.291 365.013 286.896 365.446 287.904C366.114 289.439 367.409 290.207 369.331 290.207ZM393.694 236.646L413.716 235.205C413.716 235.919 413.663 237.501 413.558 239.951L413.417 243.625V284.599C413.417 287.048 413.827 288.677 414.648 289.486C415.409 290.306 417.015 290.716 419.464 290.716V296.833H394.485L394.415 290.716L395.927 290.787C396.067 290.787 396.214 290.787 396.366 290.787C398.71 290.787 400.028 289.708 400.321 287.552C400.462 286.392 400.532 285.478 400.532 284.81V250.181C400.532 247.345 400.292 245.517 399.812 244.697C399.097 243.501 397.415 242.904 394.767 242.904L393.694 243.115V236.646ZM445.55 270.835C445.55 269.019 444.993 267.507 443.88 266.3C442.778 265.152 441.319 264.578 439.503 264.578C437.382 264.578 435.554 265.345 434.019 266.88C432.636 268.228 431.704 269.98 431.224 272.136H425.317V257.529C427.72 258.197 429.542 258.531 430.784 258.531C430.878 258.531 430.972 258.531 431.065 258.531L432.946 258.46C433.567 258.46 435.536 258.244 438.853 257.81C440.821 257.564 442.573 257.441 444.108 257.441C449.054 257.441 452.651 258.595 454.901 260.904C457.116 263.212 458.247 266.863 458.294 271.855L458.364 285.32C458.364 286.902 458.435 287.933 458.575 288.414C459.009 289.996 460.233 290.88 462.249 291.068H464.271V296.904H447.554L446.763 292.65C443.458 296.107 439.333 297.835 434.388 297.835C430.884 297.835 428.001 296.828 425.739 294.812C423.489 292.796 422.364 290.06 422.364 286.603C422.364 280.029 426.946 275.447 436.11 272.857C437.212 272.623 440.358 271.949 445.55 270.835ZM435.39 285.091C435.39 286.052 435.7 286.919 436.321 287.693C436.954 288.455 437.722 288.835 438.624 288.835C441.026 288.835 442.831 287.64 444.038 285.25C444.999 283.375 445.48 281.119 445.48 278.482V277.832C442.937 278.16 440.774 278.828 438.993 279.835C436.591 281.183 435.39 282.935 435.39 285.091ZM497.898 272.576H491.921C491.44 270.08 490.913 268.304 490.339 267.25C489.331 265.421 487.843 264.507 485.874 264.507C484.198 264.507 482.616 265.251 481.128 266.74C478.925 268.943 477.823 272.664 477.823 277.902C477.823 285.765 480.437 289.697 485.663 289.697C488.933 289.697 492.173 287.945 495.384 284.441L499.638 289.626C495.173 295.298 489.894 298.134 483.8 298.134C478.034 298.134 473.329 296.259 469.685 292.509C465.982 288.771 464.13 283.996 464.13 278.183C464.13 273.531 465.284 269.476 467.593 266.019C469.995 262.375 473.353 259.832 477.665 258.39C479.974 257.617 481.825 257.23 483.22 257.23C484.368 257.23 486.601 257.593 489.917 258.32C491.687 258.695 493.028 258.882 493.942 258.882C495.196 258.882 496.515 258.455 497.898 257.599V272.576ZM524.528 277.761C524.048 278.242 523.204 278.933 521.997 279.835V284.529C521.997 286.873 522.214 288.408 522.648 289.134C523.269 290.189 524.687 290.716 526.901 290.716C527.429 290.716 527.886 290.693 528.273 290.646V296.833H502.644L502.556 290.716C504.149 290.716 505.087 290.693 505.368 290.646C506.575 290.447 507.39 290.083 507.812 289.556C508.198 289.076 508.468 288.214 508.62 286.972C508.714 285.718 508.761 284.447 508.761 283.158V248.951C508.761 246.595 508.421 245.037 507.741 244.275C507.073 243.501 505.585 243.068 503.276 242.974L501.765 242.904V236.787L522.437 235.416C522.437 236.904 522.366 239.136 522.226 242.113C522.073 245.089 521.997 247.322 521.997 248.81V269.482C521.903 269.857 521.857 270.144 521.857 270.343C525.982 266.933 528.044 265.035 528.044 264.648L527.692 264.437L524.388 264.367V257.81H545.112V264.437C542.71 264.437 541.005 264.724 539.997 265.298C539.857 265.392 538.948 266.113 537.273 267.46L534.249 269.904L539.206 278.904C541.034 282.22 542.786 285.15 544.462 287.693C545.716 289.568 547.228 290.646 548.997 290.927V296.833H534.249L530.575 289.416L524.528 277.761ZM567.911 259.902C570.595 257.792 573.812 256.738 577.562 256.738C582.882 256.738 587.177 258.847 590.446 263.066C593.47 266.91 594.982 271.568 594.982 277.041C594.982 283.041 593.399 287.957 590.235 291.789C586.872 295.925 582.237 297.994 576.331 297.994C574.269 297.994 572.136 297.701 569.933 297.115C569.206 296.927 567.929 296.546 566.101 295.972C565.48 295.773 564.858 295.673 564.237 295.673C563.136 295.673 562.175 295.914 561.355 296.394L558.982 298.205H553.146C554.2 293.693 554.728 288.894 554.728 283.808L554.798 252.484C554.798 252.003 554.751 251.306 554.657 250.392C554.564 249.478 554.517 248.804 554.517 248.371C554.517 246.074 554.206 244.662 553.585 244.134C552.765 243.408 551.23 242.998 548.98 242.904L547.468 242.833V236.716L567.982 235.205L567.841 241.322L567.911 259.902ZM580.796 278.113C580.796 269.277 578.634 264.859 574.31 264.859C570.044 264.859 567.911 269.037 567.911 277.392C567.911 285.935 570.044 290.207 574.31 290.207C576.759 290.207 578.54 288.718 579.653 285.742C580.415 283.679 580.796 281.136 580.796 278.113ZM598.831 258.39L618.413 257.16C618.413 258.46 618.337 260.382 618.185 262.925C618.044 265.468 617.974 267.361 617.974 268.603L617.903 281.207L618.044 282.068C618.044 284.13 618.19 285.548 618.483 286.322C619.011 287.763 620.136 288.484 621.858 288.484C623.98 288.484 625.638 287.57 626.833 285.742C627.888 284.16 628.415 282.244 628.415 279.994L628.485 270.765C628.485 268.562 628.151 267.056 627.483 266.248C626.815 265.427 625.421 264.871 623.3 264.578L622.808 264.507L621.718 264.648V258.46L642.319 257.371C642.319 258.671 642.243 260.617 642.091 263.207C641.903 265.796 641.81 267.742 641.81 269.042V284.529C641.81 287.025 642.196 288.677 642.97 289.486C643.732 290.353 645.337 290.787 647.786 290.787V296.904H630.648C630.167 294.501 629.927 293.083 629.927 292.65C626.517 296.259 622.315 298.064 617.323 298.064C613.011 298.064 609.771 296.5 607.603 293.371C605.692 290.64 604.737 287.042 604.737 282.578V268.462C604.737 267.267 604.567 266.406 604.228 265.878C603.841 265.398 603.073 265.011 601.925 264.718L598.831 264.296V258.39ZM667.069 263.998C668.37 261.654 670.028 260.072 672.044 259.251C673.239 258.771 675.542 258.267 678.952 257.74C679.913 257.599 680.757 257.166 681.483 256.439C681.765 256.158 682.339 255.39 683.206 254.136V272.576H676.948V272.136C676.948 269.828 676.011 268.673 674.136 268.673C673.562 268.673 672.982 268.796 672.396 269.042C669.618 270.191 668.23 273.455 668.23 278.833C668.23 279.021 668.23 279.214 668.23 279.414L668.3 283.738C668.347 286.703 668.874 288.595 669.882 289.416C670.89 290.283 672.929 290.716 675.999 290.716V296.833H649.509V290.716C652.345 290.716 654.12 290.189 654.835 289.134C655.409 288.314 655.696 286.416 655.696 283.439L655.767 270.625C655.767 267.835 655.286 266.107 654.325 265.439C653.61 264.958 651.765 264.718 648.788 264.718V258.601L668.44 257.089L667.069 263.998ZM702.542 263.136C703.023 262.082 703.597 261.314 704.265 260.833C707.675 258.478 711.249 257.3 714.987 257.3C719.452 257.3 722.769 258.982 724.937 262.345C726.753 265.181 727.661 268.949 727.661 273.648V285.162C727.661 287.376 728.118 288.865 729.032 289.626C729.899 290.4 731.458 290.787 733.708 290.787V296.833H709.31L709.239 290.716L710.593 290.787C710.698 290.787 710.798 290.787 710.892 290.787C712.614 290.787 713.669 289.949 714.056 288.273C714.056 288.214 714.126 287.207 714.267 285.25L714.337 284.16V274.087C714.337 269.376 712.878 267.021 709.96 267.021C708.952 267.021 707.991 267.308 707.077 267.882C704.862 269.277 703.755 272.253 703.755 276.812V286.761C703.755 288.191 703.995 289.146 704.476 289.626C704.909 290.107 705.847 290.494 707.288 290.787H708.589V296.833H684.173L684.103 290.787C686.845 290.787 688.55 290.4 689.218 289.626C689.745 289.005 690.132 287.277 690.378 284.441L690.448 283.58L690.378 271.205C690.378 268.509 689.898 266.757 688.937 265.949C688.116 265.269 686.312 264.929 683.523 264.929V258.882L704.124 257.3L702.542 263.136Z"
       fill="black"
       id="path184" />
  </g>
  <defs
     id="defs191">
    <clipPath
       id="clip0">
      <rect
         width="1152"
         height="700"
         fill="white"
         id="rect188" />
    </clipPath>
  </defs>
</svg>
