<?xml version="1.0" encoding="UTF-8" standalone="no"?>
<svg
   xmlns:dc="http://purl.org/dc/elements/1.1/"
   xmlns:cc="http://creativecommons.org/ns#"
   xmlns:rdf="http://www.w3.org/1999/02/22-rdf-syntax-ns#"
   xmlns:svg="http://www.w3.org/2000/svg"
   xmlns="http://www.w3.org/2000/svg"
   xmlns:sodipodi="http://sodipodi.sourceforge.net/DTD/sodipodi-0.dtd"
   xmlns:inkscape="http://www.inkscape.org/namespaces/inkscape"
   width="74"
   height="28"
   viewBox="0 0 74 28"
   fill="none"
   version="1.1"
   id="bb_logo"
   sodipodi:docname="logobb.svg"
   inkscape:version="1.0.2-2 (e86c870879, 2021-01-15)">
  <metadata
     id="metadata12">
    <rdf:RDF>
      <cc:Work
         rdf:about="">
        <dc:format>image/svg+xml</dc:format>
        <dc:type
           rdf:resource="http://purl.org/dc/dcmitype/StillImage" />
        <dc:title></dc:title>
      </cc:Work>
    </rdf:RDF>
  </metadata>
  <defs
     id="bb_logo_w" />
  <sodipodi:namedview
     pagecolor="#ffffff"
     bordercolor="#666666"
     borderopacity="1"
     objecttolerance="10"
     gridtolerance="10"
     guidetolerance="10"
     inkscape:pageopacity="0"
     inkscape:pageshadow="2"
     inkscape:window-width="1920"
     inkscape:window-height="1017"
     id="namedview8"
     showgrid="false"
     inkscape:zoom="6.1213196"
     inkscape:cx="22.85427"
     inkscape:cy="34.667319"
     inkscape:window-x="-8"
     inkscape:window-y="-8"
     inkscape:window-maximized="1"
     inkscape:current-layer="bb_logo"
     inkscape:document-rotation="0" />
  <path
     d="m 19,9.5296288 h -5 v -5.99995 c 0,-0.3 -0.2,-0.6 -0.4,-0.8 -0.4,-0.3 -1.1,-0.2 -1.4,0.2 l -8,10.9999502 c -0.1,0.2 -0.2,0.4 -0.2,0.6 0,0.6 0.4,1 1,1 h 5 v 6 c 0,0.6 0.4,1 1,1 0.3,0 0.6,-0.2 0.8,-0.4 l 8,-11 c 0.1,-0.2 0.2,-0.4 0.2,-0.6 0,-0.6000002 -0.4,-1.0000002 -1,-1.0000002 z"
     fill="currentColor"
     id="bb_logo_1" />
  <text
     xml:space="preserve"
     style="font-size:15.7112px;line-height:1.25;font-family:'Cooper Black';-inkscape-font-specification:'Cooper Black, Normal';stroke-width:0.999998"
     x="18.245335"
     y="12.368556"
     id="bb_logo_text"
     fill="#eeeeee"
     transform="scale(0.70401033,1.4204337)"><tspan
       sodipodi:role="line"
       id="tspan14"
       x="18.245335"
       y="12.368556"
       style="stroke-width:0.999998">nwp-cgn</tspan></text>
</svg>
