<svg xmlns="http://www.w3.org/2000/svg" xmlns:svg="http://www.w3.org/2000/svg" id="bb_logo" width="74" height="28" fill="none" version="1.1" viewBox="0 0 74 28"><metadata id="metadata12"/><path id="bb_logo_1" fill="rgba(153, 27, 27, 1)" d="M19 10.9999H14V4.99995C14 4.69995 13.8 4.39995 13.6 4.19995C13.2 3.89995 12.5 3.99995 12.2 4.39995L4.2 15.3999C4.1 15.5999 4 15.7999 4 15.9999C4 16.5999 4.4 16.9999 5 16.9999H10V22.9999C10 23.5999 10.4 23.9999 11 23.9999C11.3 23.9999 11.6 23.7999 11.8 23.5999L19.8 12.5999C19.9 12.3999 20 12.1999 20 11.9999C20 11.3999 19.6 10.9999 19 10.9999Z"/><text style="font-size:15.7112px;line-height:1.25;font-family:'Cooper Black';-inkscape-font-specification:'Cooper Black, Normal';stroke-width:.999998" id="bb_logo_text" x="17.048" y="15.23" fill="#eee" transform="scale(0.70401033,1.4204337)" xml:space="preserve"><tspan id="tspan14" x="17.048" y="15.23" style="stroke-width:.999998">Blackburn</tspan></text></svg>