<svg xmlns="http://www.w3.org/2000/svg" xmlns:svg="http://www.w3.org/2000/svg" id="bb_logo" width="74" height="28" fill="none" version="1.1" viewBox="0 0 74 28"><metadata id="metadata12"/><path id="bb_logo_1" fill="currentColor" d="m 19,9.5296288 h -5 v -5.99995 c 0,-0.3 -0.2,-0.6 -0.4,-0.8 -0.4,-0.3 -1.1,-0.2 -1.4,0.2 l -8,10.9999502 c -0.1,0.2 -0.2,0.4 -0.2,0.6 0,0.6 0.4,1 1,1 h 5 v 6 c 0,0.6 0.4,1 1,1 0.3,0 0.6,-0.2 0.8,-0.4 l 8,-11 c 0.1,-0.2 0.2,-0.4 0.2,-0.6 0,-0.6000002 -0.4,-1.0000002 -1,-1.0000002 z"/><text style="font-size:15.7112px;line-height:1.25;font-family:'Cooper Black';-inkscape-font-specification:'Cooper Black, Normal';stroke-width:.999998" id="bb_logo_text" x="18.245" y="12.369" fill="#eee" transform="scale(0.70401033,1.4204337)" xml:space="preserve"><tspan id="tspan14" x="18.245" y="12.369" style="stroke-width:.999998">nwp-cgn</tspan></text></svg>